solid silicon_Y
   facet normal 0.000000e+000 1.000000e+000 0.000000e+000
      outer loop
         vertex 5.763140e+001 5.000000e+000 4.482051e+001
         vertex 5.684150e+001 5.000000e+000 4.518884e+001
         vertex 7.013140e+001 5.000000e+000 9.549038e+001
      endloop
   endfacet
   facet normal 0.000000e+000 1.000000e+000 0.000000e+000
      outer loop
         vertex 4.013140e+001 5.000000e+000 4.915063e+001
         vertex 5.080127e+001 5.000000e+000 4.299038e+001
         vertex 5.043293e+001 5.000000e+000 4.220049e+001
      endloop
   endfacet
   facet normal 0.000000e+000 1.000000e+000 0.000000e+000
      outer loop
         vertex 5.896162e+001 5.000000e+000 3.727644e+001
         vertex 5.946152e+001 5.000000e+000 3.799038e+001
         vertex 7.013140e+001 5.000000e+000 4.915063e+001
      endloop
   endfacet
   facet normal 0.000000e+000 1.000000e+000 0.000000e+000
      outer loop
         vertex 7.013140e+001 5.000000e+000 4.915063e+001
         vertex 5.946152e+001 5.000000e+000 3.799038e+001
         vertex 5.982986e+001 5.000000e+000 3.878028e+001
      endloop
   endfacet
   facet normal 0.000000e+000 1.000000e+000 0.000000e+000
      outer loop
         vertex 7.013140e+001 5.000000e+000 4.915063e+001
         vertex 5.982986e+001 5.000000e+000 3.878028e+001
         vertex 6.005544e+001 5.000000e+000 3.962214e+001
      endloop
   endfacet
   facet normal 0.000000e+000 1.000000e+000 0.000000e+000
      outer loop
         vertex 6.005544e+001 5.000000e+000 3.962214e+001
         vertex 6.013140e+001 5.000000e+000 4.049038e+001
         vertex 7.013140e+001 5.000000e+000 4.915063e+001
      endloop
   endfacet
   facet normal 0.000000e+000 1.000000e+000 0.000000e+000
      outer loop
         vertex 7.013140e+001 5.000000e+000 4.915063e+001
         vertex 6.013140e+001 5.000000e+000 4.049038e+001
         vertex 6.005544e+001 5.000000e+000 4.135862e+001
      endloop
   endfacet
   facet normal 0.000000e+000 1.000000e+000 0.000000e+000
      outer loop
         vertex 7.013140e+001 5.000000e+000 4.915063e+001
         vertex 6.005544e+001 5.000000e+000 4.135862e+001
         vertex 5.982986e+001 5.000000e+000 4.220049e+001
      endloop
   endfacet
   facet normal 0.000000e+000 1.000000e+000 0.000000e+000
      outer loop
         vertex 5.043293e+001 5.000000e+000 3.878028e+001
         vertex 5.080127e+001 5.000000e+000 3.799038e+001
         vertex 5.513140e+001 5.000000e+000 2.316987e+001
      endloop
   endfacet
   facet normal 0.000000e+000 1.000000e+000 0.000000e+000
      outer loop
         vertex 5.513140e+001 5.000000e+000 2.316987e+001
         vertex 5.080127e+001 5.000000e+000 3.799038e+001
         vertex 5.130118e+001 5.000000e+000 3.727644e+001
      endloop
   endfacet
   facet normal 0.000000e+000 1.000000e+000 0.000000e+000
      outer loop
         vertex 5.513140e+001 5.000000e+000 2.316987e+001
         vertex 5.130118e+001 5.000000e+000 3.727644e+001
         vertex 5.191746e+001 5.000000e+000 3.666016e+001
      endloop
   endfacet
   facet normal 0.000000e+000 1.000000e+000 0.000000e+000
      outer loop
         vertex 5.982986e+001 5.000000e+000 4.220049e+001
         vertex 5.946152e+001 5.000000e+000 4.299038e+001
         vertex 7.013140e+001 5.000000e+000 4.915063e+001
      endloop
   endfacet
   facet normal 0.000000e+000 1.000000e+000 0.000000e+000
      outer loop
         vertex 7.013140e+001 5.000000e+000 4.915063e+001
         vertex 5.946152e+001 5.000000e+000 4.299038e+001
         vertex 5.896162e+001 5.000000e+000 4.370432e+001
      endloop
   endfacet
   facet normal 0.000000e+000 1.000000e+000 0.000000e+000
      outer loop
         vertex 7.013140e+001 5.000000e+000 4.915063e+001
         vertex 5.896162e+001 5.000000e+000 4.370432e+001
         vertex 7.013140e+001 5.000000e+000 9.549038e+001
      endloop
   endfacet
   facet normal 0.000000e+000 1.000000e+000 0.000000e+000
      outer loop
         vertex 7.013140e+001 5.000000e+000 9.549038e+001
         vertex 5.896162e+001 5.000000e+000 4.370432e+001
         vertex 5.834534e+001 5.000000e+000 4.432060e+001
      endloop
   endfacet
   facet normal 0.000000e+000 1.000000e+000 0.000000e+000
      outer loop
         vertex 7.013140e+001 5.000000e+000 9.549038e+001
         vertex 5.834534e+001 5.000000e+000 4.432060e+001
         vertex 5.763140e+001 5.000000e+000 4.482051e+001
      endloop
   endfacet
   facet normal 0.000000e+000 1.000000e+000 0.000000e+000
      outer loop
         vertex 5.191746e+001 5.000000e+000 3.666016e+001
         vertex 5.263140e+001 5.000000e+000 3.616025e+001
         vertex 5.513140e+001 5.000000e+000 2.316987e+001
      endloop
   endfacet
   facet normal 0.000000e+000 1.000000e+000 0.000000e+000
      outer loop
         vertex 5.513140e+001 5.000000e+000 2.316987e+001
         vertex 5.263140e+001 5.000000e+000 3.616025e+001
         vertex 5.342130e+001 5.000000e+000 3.579192e+001
      endloop
   endfacet
   facet normal 0.000000e+000 1.000000e+000 0.000000e+000
      outer loop
         vertex 5.513140e+001 5.000000e+000 2.316987e+001
         vertex 5.342130e+001 5.000000e+000 3.579192e+001
         vertex 5.426316e+001 5.000000e+000 3.556634e+001
      endloop
   endfacet
   facet normal 0.000000e+000 1.000000e+000 0.000000e+000
      outer loop
         vertex 5.684150e+001 5.000000e+000 4.518884e+001
         vertex 5.599964e+001 5.000000e+000 4.541442e+001
         vertex 7.013140e+001 5.000000e+000 9.549038e+001
      endloop
   endfacet
   facet normal 0.000000e+000 1.000000e+000 0.000000e+000
      outer loop
         vertex 7.013140e+001 5.000000e+000 9.549038e+001
         vertex 5.599964e+001 5.000000e+000 4.541442e+001
         vertex 5.513140e+001 5.000000e+000 4.549038e+001
      endloop
   endfacet
   facet normal 0.000000e+000 1.000000e+000 0.000000e+000
      outer loop
         vertex 7.013140e+001 5.000000e+000 9.549038e+001
         vertex 5.513140e+001 5.000000e+000 4.549038e+001
         vertex 4.013140e+001 5.000000e+000 9.549038e+001
      endloop
   endfacet
   facet normal 0.000000e+000 1.000000e+000 0.000000e+000
      outer loop
         vertex 4.013140e+001 5.000000e+000 9.549038e+001
         vertex 5.513140e+001 5.000000e+000 4.549038e+001
         vertex 5.426316e+001 5.000000e+000 4.541442e+001
      endloop
   endfacet
   facet normal 0.000000e+000 1.000000e+000 0.000000e+000
      outer loop
         vertex 4.013140e+001 5.000000e+000 9.549038e+001
         vertex 5.426316e+001 5.000000e+000 4.541442e+001
         vertex 5.342130e+001 5.000000e+000 4.518884e+001
      endloop
   endfacet
   facet normal 0.000000e+000 1.000000e+000 0.000000e+000
      outer loop
         vertex 5.426316e+001 5.000000e+000 3.556634e+001
         vertex 5.513140e+001 5.000000e+000 3.549038e+001
         vertex 5.513140e+001 5.000000e+000 2.316987e+001
      endloop
   endfacet
   facet normal 0.000000e+000 1.000000e+000 0.000000e+000
      outer loop
         vertex 5.513140e+001 5.000000e+000 2.316987e+001
         vertex 5.513140e+001 5.000000e+000 3.549038e+001
         vertex 5.599964e+001 5.000000e+000 3.556634e+001
      endloop
   endfacet
   facet normal 0.000000e+000 1.000000e+000 0.000000e+000
      outer loop
         vertex 5.513140e+001 5.000000e+000 2.316987e+001
         vertex 5.599964e+001 5.000000e+000 3.556634e+001
         vertex 9.526279e+001 5.000000e+000 0.000000e+000
      endloop
   endfacet
   facet normal 0.000000e+000 1.000000e+000 0.000000e+000
      outer loop
         vertex 9.526279e+001 5.000000e+000 0.000000e+000
         vertex 5.599964e+001 5.000000e+000 3.556634e+001
         vertex 5.684150e+001 5.000000e+000 3.579192e+001
      endloop
   endfacet
   facet normal 0.000000e+000 1.000000e+000 0.000000e+000
      outer loop
         vertex 9.526279e+001 5.000000e+000 0.000000e+000
         vertex 5.684150e+001 5.000000e+000 3.579192e+001
         vertex 5.763140e+001 5.000000e+000 3.616025e+001
      endloop
   endfacet
   facet normal 0.000000e+000 1.000000e+000 0.000000e+000
      outer loop
         vertex 5.513140e+001 5.000000e+000 2.316987e+001
         vertex 1.500000e+001 5.000000e+000 0.000000e+000
         vertex 5.043293e+001 5.000000e+000 3.878028e+001
      endloop
   endfacet
   facet normal 0.000000e+000 1.000000e+000 0.000000e+000
      outer loop
         vertex 5.043293e+001 5.000000e+000 3.878028e+001
         vertex 1.500000e+001 5.000000e+000 0.000000e+000
         vertex 0.000000e+000 5.000000e+000 2.598076e+001
      endloop
   endfacet
   facet normal 0.000000e+000 1.000000e+000 0.000000e+000
      outer loop
         vertex 5.043293e+001 5.000000e+000 3.878028e+001
         vertex 0.000000e+000 5.000000e+000 2.598076e+001
         vertex 5.020736e+001 5.000000e+000 3.962214e+001
      endloop
   endfacet
   facet normal 0.000000e+000 1.000000e+000 0.000000e+000
      outer loop
         vertex 5.020736e+001 5.000000e+000 3.962214e+001
         vertex 0.000000e+000 5.000000e+000 2.598076e+001
         vertex 5.013140e+001 5.000000e+000 4.049038e+001
      endloop
   endfacet
   facet normal 0.000000e+000 1.000000e+000 0.000000e+000
      outer loop
         vertex 7.013140e+001 5.000000e+000 4.915063e+001
         vertex 1.102628e+002 5.000000e+000 2.598076e+001
         vertex 5.896162e+001 5.000000e+000 3.727644e+001
      endloop
   endfacet
   facet normal 0.000000e+000 1.000000e+000 0.000000e+000
      outer loop
         vertex 5.896162e+001 5.000000e+000 3.727644e+001
         vertex 1.102628e+002 5.000000e+000 2.598076e+001
         vertex 9.526279e+001 5.000000e+000 0.000000e+000
      endloop
   endfacet
   facet normal 0.000000e+000 1.000000e+000 0.000000e+000
      outer loop
         vertex 5.896162e+001 5.000000e+000 3.727644e+001
         vertex 9.526279e+001 5.000000e+000 0.000000e+000
         vertex 5.834534e+001 5.000000e+000 3.666016e+001
      endloop
   endfacet
   facet normal 0.000000e+000 1.000000e+000 0.000000e+000
      outer loop
         vertex 5.834534e+001 5.000000e+000 3.666016e+001
         vertex 9.526279e+001 5.000000e+000 0.000000e+000
         vertex 5.763140e+001 5.000000e+000 3.616025e+001
      endloop
   endfacet
   facet normal 0.000000e+000 1.000000e+000 0.000000e+000
      outer loop
         vertex 4.013140e+001 5.000000e+000 4.915063e+001
         vertex 5.043293e+001 5.000000e+000 4.220049e+001
         vertex 0.000000e+000 5.000000e+000 2.598076e+001
      endloop
   endfacet
   facet normal 0.000000e+000 1.000000e+000 0.000000e+000
      outer loop
         vertex 0.000000e+000 5.000000e+000 2.598076e+001
         vertex 5.043293e+001 5.000000e+000 4.220049e+001
         vertex 5.020736e+001 5.000000e+000 4.135862e+001
      endloop
   endfacet
   facet normal 0.000000e+000 1.000000e+000 0.000000e+000
      outer loop
         vertex 0.000000e+000 5.000000e+000 2.598076e+001
         vertex 5.020736e+001 5.000000e+000 4.135862e+001
         vertex 5.013140e+001 5.000000e+000 4.049038e+001
      endloop
   endfacet
   facet normal 0.000000e+000 1.000000e+000 0.000000e+000
      outer loop
         vertex 5.342130e+001 5.000000e+000 4.518884e+001
         vertex 5.263140e+001 5.000000e+000 4.482051e+001
         vertex 4.013140e+001 5.000000e+000 9.549038e+001
      endloop
   endfacet
   facet normal 0.000000e+000 1.000000e+000 0.000000e+000
      outer loop
         vertex 4.013140e+001 5.000000e+000 9.549038e+001
         vertex 5.263140e+001 5.000000e+000 4.482051e+001
         vertex 5.191746e+001 5.000000e+000 4.432060e+001
      endloop
   endfacet
   facet normal 0.000000e+000 1.000000e+000 0.000000e+000
      outer loop
         vertex 4.013140e+001 5.000000e+000 9.549038e+001
         vertex 5.191746e+001 5.000000e+000 4.432060e+001
         vertex 4.013140e+001 5.000000e+000 4.915063e+001
      endloop
   endfacet
   facet normal 0.000000e+000 1.000000e+000 0.000000e+000
      outer loop
         vertex 4.013140e+001 5.000000e+000 4.915063e+001
         vertex 5.191746e+001 5.000000e+000 4.432060e+001
         vertex 5.130118e+001 5.000000e+000 4.370432e+001
      endloop
   endfacet
   facet normal 0.000000e+000 1.000000e+000 0.000000e+000
      outer loop
         vertex 4.013140e+001 5.000000e+000 4.915063e+001
         vertex 5.130118e+001 5.000000e+000 4.370432e+001
         vertex 5.080127e+001 5.000000e+000 4.299038e+001
      endloop
   endfacet
   facet normal 0.000000e+000 -1.000000e+000 0.000000e+000
      outer loop
         vertex 5.191746e+001 0.000000e+000 4.432060e+001
         vertex 5.263140e+001 0.000000e+000 4.482051e+001
         vertex 4.013140e+001 0.000000e+000 9.549038e+001
      endloop
   endfacet
   facet normal 0.000000e+000 -1.000000e+000 0.000000e+000
      outer loop
         vertex 5.513140e+001 0.000000e+000 2.316987e+001
         vertex 5.513140e+001 0.000000e+000 3.549038e+001
         vertex 5.426316e+001 0.000000e+000 3.556634e+001
      endloop
   endfacet
   facet normal 0.000000e+000 -1.000000e+000 0.000000e+000
      outer loop
         vertex 5.426316e+001 0.000000e+000 4.541442e+001
         vertex 5.513140e+001 0.000000e+000 4.549038e+001
         vertex 7.013140e+001 0.000000e+000 4.915063e+001
      endloop
   endfacet
   facet normal 0.000000e+000 -1.000000e+000 0.000000e+000
      outer loop
         vertex 7.013140e+001 0.000000e+000 4.915063e+001
         vertex 5.513140e+001 0.000000e+000 4.549038e+001
         vertex 5.599964e+001 0.000000e+000 4.541442e+001
      endloop
   endfacet
   facet normal 0.000000e+000 -1.000000e+000 0.000000e+000
      outer loop
         vertex 7.013140e+001 0.000000e+000 4.915063e+001
         vertex 5.599964e+001 0.000000e+000 4.541442e+001
         vertex 5.684150e+001 0.000000e+000 4.518884e+001
      endloop
   endfacet
   facet normal 0.000000e+000 -1.000000e+000 0.000000e+000
      outer loop
         vertex 5.684150e+001 0.000000e+000 4.518884e+001
         vertex 5.763140e+001 0.000000e+000 4.482051e+001
         vertex 7.013140e+001 0.000000e+000 4.915063e+001
      endloop
   endfacet
   facet normal 0.000000e+000 -1.000000e+000 0.000000e+000
      outer loop
         vertex 7.013140e+001 0.000000e+000 4.915063e+001
         vertex 5.763140e+001 0.000000e+000 4.482051e+001
         vertex 5.834534e+001 0.000000e+000 4.432060e+001
      endloop
   endfacet
   facet normal 0.000000e+000 -1.000000e+000 0.000000e+000
      outer loop
         vertex 7.013140e+001 0.000000e+000 4.915063e+001
         vertex 5.834534e+001 0.000000e+000 4.432060e+001
         vertex 5.896162e+001 0.000000e+000 4.370432e+001
      endloop
   endfacet
   facet normal 0.000000e+000 -1.000000e+000 0.000000e+000
      outer loop
         vertex 5.896162e+001 0.000000e+000 4.370432e+001
         vertex 5.946152e+001 0.000000e+000 4.299038e+001
         vertex 7.013140e+001 0.000000e+000 4.915063e+001
      endloop
   endfacet
   facet normal 0.000000e+000 -1.000000e+000 0.000000e+000
      outer loop
         vertex 7.013140e+001 0.000000e+000 4.915063e+001
         vertex 5.946152e+001 0.000000e+000 4.299038e+001
         vertex 5.982986e+001 0.000000e+000 4.220049e+001
      endloop
   endfacet
   facet normal 0.000000e+000 -1.000000e+000 0.000000e+000
      outer loop
         vertex 7.013140e+001 0.000000e+000 4.915063e+001
         vertex 5.982986e+001 0.000000e+000 4.220049e+001
         vertex 1.102628e+002 0.000000e+000 2.598076e+001
      endloop
   endfacet
   facet normal 0.000000e+000 -1.000000e+000 0.000000e+000
      outer loop
         vertex 1.102628e+002 0.000000e+000 2.598076e+001
         vertex 5.982986e+001 0.000000e+000 4.220049e+001
         vertex 6.005544e+001 0.000000e+000 4.135862e+001
      endloop
   endfacet
   facet normal 0.000000e+000 -1.000000e+000 0.000000e+000
      outer loop
         vertex 1.102628e+002 0.000000e+000 2.598076e+001
         vertex 6.005544e+001 0.000000e+000 4.135862e+001
         vertex 6.013140e+001 0.000000e+000 4.049038e+001
      endloop
   endfacet
   facet normal 0.000000e+000 -1.000000e+000 0.000000e+000
      outer loop
         vertex 6.013140e+001 0.000000e+000 4.049038e+001
         vertex 6.005544e+001 0.000000e+000 3.962214e+001
         vertex 1.102628e+002 0.000000e+000 2.598076e+001
      endloop
   endfacet
   facet normal 0.000000e+000 -1.000000e+000 0.000000e+000
      outer loop
         vertex 1.102628e+002 0.000000e+000 2.598076e+001
         vertex 6.005544e+001 0.000000e+000 3.962214e+001
         vertex 5.982986e+001 0.000000e+000 3.878028e+001
      endloop
   endfacet
   facet normal 0.000000e+000 -1.000000e+000 0.000000e+000
      outer loop
         vertex 1.102628e+002 0.000000e+000 2.598076e+001
         vertex 5.982986e+001 0.000000e+000 3.878028e+001
         vertex 9.526279e+001 0.000000e+000 0.000000e+000
      endloop
   endfacet
   facet normal 0.000000e+000 -1.000000e+000 0.000000e+000
      outer loop
         vertex 5.191746e+001 0.000000e+000 4.432060e+001
         vertex 4.013140e+001 0.000000e+000 9.549038e+001
         vertex 5.130118e+001 0.000000e+000 4.370432e+001
      endloop
   endfacet
   facet normal 0.000000e+000 -1.000000e+000 0.000000e+000
      outer loop
         vertex 5.130118e+001 0.000000e+000 4.370432e+001
         vertex 4.013140e+001 0.000000e+000 9.549038e+001
         vertex 4.013140e+001 0.000000e+000 4.915063e+001
      endloop
   endfacet
   facet normal 0.000000e+000 -1.000000e+000 0.000000e+000
      outer loop
         vertex 5.130118e+001 0.000000e+000 4.370432e+001
         vertex 4.013140e+001 0.000000e+000 4.915063e+001
         vertex 5.080127e+001 0.000000e+000 4.299038e+001
      endloop
   endfacet
   facet normal 0.000000e+000 -1.000000e+000 0.000000e+000
      outer loop
         vertex 7.013140e+001 0.000000e+000 4.915063e+001
         vertex 7.013140e+001 0.000000e+000 9.549038e+001
         vertex 5.426316e+001 0.000000e+000 4.541442e+001
      endloop
   endfacet
   facet normal 0.000000e+000 -1.000000e+000 0.000000e+000
      outer loop
         vertex 5.426316e+001 0.000000e+000 4.541442e+001
         vertex 7.013140e+001 0.000000e+000 9.549038e+001
         vertex 4.013140e+001 0.000000e+000 9.549038e+001
      endloop
   endfacet
   facet normal 0.000000e+000 -1.000000e+000 0.000000e+000
      outer loop
         vertex 5.426316e+001 0.000000e+000 4.541442e+001
         vertex 4.013140e+001 0.000000e+000 9.549038e+001
         vertex 5.342130e+001 0.000000e+000 4.518884e+001
      endloop
   endfacet
   facet normal 0.000000e+000 -1.000000e+000 0.000000e+000
      outer loop
         vertex 5.342130e+001 0.000000e+000 4.518884e+001
         vertex 4.013140e+001 0.000000e+000 9.549038e+001
         vertex 5.263140e+001 0.000000e+000 4.482051e+001
      endloop
   endfacet
   facet normal 0.000000e+000 -1.000000e+000 0.000000e+000
      outer loop
         vertex 5.513140e+001 0.000000e+000 2.316987e+001
         vertex 5.426316e+001 0.000000e+000 3.556634e+001
         vertex 1.500000e+001 0.000000e+000 0.000000e+000
      endloop
   endfacet
   facet normal 0.000000e+000 -1.000000e+000 0.000000e+000
      outer loop
         vertex 1.500000e+001 0.000000e+000 0.000000e+000
         vertex 5.426316e+001 0.000000e+000 3.556634e+001
         vertex 5.342130e+001 0.000000e+000 3.579192e+001
      endloop
   endfacet
   facet normal 0.000000e+000 -1.000000e+000 0.000000e+000
      outer loop
         vertex 1.500000e+001 0.000000e+000 0.000000e+000
         vertex 5.342130e+001 0.000000e+000 3.579192e+001
         vertex 5.263140e+001 0.000000e+000 3.616025e+001
      endloop
   endfacet
   facet normal 0.000000e+000 -1.000000e+000 0.000000e+000
      outer loop
         vertex 5.043293e+001 0.000000e+000 3.878028e+001
         vertex 5.020736e+001 0.000000e+000 3.962214e+001
         vertex 0.000000e+000 0.000000e+000 2.598076e+001
      endloop
   endfacet
   facet normal 0.000000e+000 -1.000000e+000 0.000000e+000
      outer loop
         vertex 5.982986e+001 0.000000e+000 3.878028e+001
         vertex 5.946152e+001 0.000000e+000 3.799038e+001
         vertex 9.526279e+001 0.000000e+000 0.000000e+000
      endloop
   endfacet
   facet normal 0.000000e+000 -1.000000e+000 0.000000e+000
      outer loop
         vertex 9.526279e+001 0.000000e+000 0.000000e+000
         vertex 5.946152e+001 0.000000e+000 3.799038e+001
         vertex 5.896162e+001 0.000000e+000 3.727644e+001
      endloop
   endfacet
   facet normal 0.000000e+000 -1.000000e+000 0.000000e+000
      outer loop
         vertex 9.526279e+001 0.000000e+000 0.000000e+000
         vertex 5.896162e+001 0.000000e+000 3.727644e+001
         vertex 5.834534e+001 0.000000e+000 3.666016e+001
      endloop
   endfacet
   facet normal 0.000000e+000 -1.000000e+000 0.000000e+000
      outer loop
         vertex 5.834534e+001 0.000000e+000 3.666016e+001
         vertex 5.763140e+001 0.000000e+000 3.616025e+001
         vertex 9.526279e+001 0.000000e+000 0.000000e+000
      endloop
   endfacet
   facet normal 0.000000e+000 -1.000000e+000 0.000000e+000
      outer loop
         vertex 9.526279e+001 0.000000e+000 0.000000e+000
         vertex 5.763140e+001 0.000000e+000 3.616025e+001
         vertex 5.684150e+001 0.000000e+000 3.579192e+001
      endloop
   endfacet
   facet normal 0.000000e+000 -1.000000e+000 0.000000e+000
      outer loop
         vertex 9.526279e+001 0.000000e+000 0.000000e+000
         vertex 5.684150e+001 0.000000e+000 3.579192e+001
         vertex 5.513140e+001 0.000000e+000 2.316987e+001
      endloop
   endfacet
   facet normal 0.000000e+000 -1.000000e+000 0.000000e+000
      outer loop
         vertex 5.513140e+001 0.000000e+000 2.316987e+001
         vertex 5.684150e+001 0.000000e+000 3.579192e+001
         vertex 5.599964e+001 0.000000e+000 3.556634e+001
      endloop
   endfacet
   facet normal 0.000000e+000 -1.000000e+000 0.000000e+000
      outer loop
         vertex 5.513140e+001 0.000000e+000 2.316987e+001
         vertex 5.599964e+001 0.000000e+000 3.556634e+001
         vertex 5.513140e+001 0.000000e+000 3.549038e+001
      endloop
   endfacet
   facet normal 0.000000e+000 -1.000000e+000 0.000000e+000
      outer loop
         vertex 5.263140e+001 0.000000e+000 3.616025e+001
         vertex 5.191746e+001 0.000000e+000 3.666016e+001
         vertex 1.500000e+001 0.000000e+000 0.000000e+000
      endloop
   endfacet
   facet normal 0.000000e+000 -1.000000e+000 0.000000e+000
      outer loop
         vertex 1.500000e+001 0.000000e+000 0.000000e+000
         vertex 5.191746e+001 0.000000e+000 3.666016e+001
         vertex 5.130118e+001 0.000000e+000 3.727644e+001
      endloop
   endfacet
   facet normal 0.000000e+000 -1.000000e+000 0.000000e+000
      outer loop
         vertex 1.500000e+001 0.000000e+000 0.000000e+000
         vertex 5.130118e+001 0.000000e+000 3.727644e+001
         vertex 0.000000e+000 0.000000e+000 2.598076e+001
      endloop
   endfacet
   facet normal 0.000000e+000 -1.000000e+000 0.000000e+000
      outer loop
         vertex 0.000000e+000 0.000000e+000 2.598076e+001
         vertex 5.130118e+001 0.000000e+000 3.727644e+001
         vertex 5.080127e+001 0.000000e+000 3.799038e+001
      endloop
   endfacet
   facet normal 0.000000e+000 -1.000000e+000 0.000000e+000
      outer loop
         vertex 0.000000e+000 0.000000e+000 2.598076e+001
         vertex 5.080127e+001 0.000000e+000 3.799038e+001
         vertex 5.043293e+001 0.000000e+000 3.878028e+001
      endloop
   endfacet
   facet normal 0.000000e+000 -1.000000e+000 0.000000e+000
      outer loop
         vertex 5.020736e+001 0.000000e+000 3.962214e+001
         vertex 5.013140e+001 0.000000e+000 4.049038e+001
         vertex 0.000000e+000 0.000000e+000 2.598076e+001
      endloop
   endfacet
   facet normal 0.000000e+000 -1.000000e+000 0.000000e+000
      outer loop
         vertex 0.000000e+000 0.000000e+000 2.598076e+001
         vertex 5.013140e+001 0.000000e+000 4.049038e+001
         vertex 5.020736e+001 0.000000e+000 4.135862e+001
      endloop
   endfacet
   facet normal 0.000000e+000 -1.000000e+000 0.000000e+000
      outer loop
         vertex 0.000000e+000 0.000000e+000 2.598076e+001
         vertex 5.020736e+001 0.000000e+000 4.135862e+001
         vertex 4.013140e+001 0.000000e+000 4.915063e+001
      endloop
   endfacet
   facet normal 0.000000e+000 -1.000000e+000 0.000000e+000
      outer loop
         vertex 4.013140e+001 0.000000e+000 4.915063e+001
         vertex 5.020736e+001 0.000000e+000 4.135862e+001
         vertex 5.043293e+001 0.000000e+000 4.220049e+001
      endloop
   endfacet
   facet normal 0.000000e+000 -1.000000e+000 0.000000e+000
      outer loop
         vertex 4.013140e+001 0.000000e+000 4.915063e+001
         vertex 5.043293e+001 0.000000e+000 4.220049e+001
         vertex 5.080127e+001 0.000000e+000 4.299038e+001
      endloop
   endfacet
   facet normal 1.000000e+000 0.000000e+000 0.000000e+000
      outer loop
         vertex 7.013140e+001 5.000000e+000 4.915063e+001
         vertex 7.013140e+001 5.000000e+000 9.549038e+001
         vertex 7.013140e+001 0.000000e+000 4.915063e+001
      endloop
   endfacet
   facet normal 1.000000e+000 0.000000e+000 0.000000e+000
      outer loop
         vertex 7.013140e+001 0.000000e+000 4.915063e+001
         vertex 7.013140e+001 5.000000e+000 9.549038e+001
         vertex 7.013140e+001 0.000000e+000 9.549038e+001
      endloop
   endfacet
   facet normal 5.000000e-001 0.000000e+000 8.660254e-001
      outer loop
         vertex 1.102628e+002 5.000000e+000 2.598076e+001
         vertex 7.013140e+001 5.000000e+000 4.915063e+001
         vertex 1.102628e+002 0.000000e+000 2.598076e+001
      endloop
   endfacet
   facet normal 5.000000e-001 0.000000e+000 8.660254e-001
      outer loop
         vertex 1.102628e+002 0.000000e+000 2.598076e+001
         vertex 7.013140e+001 5.000000e+000 4.915063e+001
         vertex 7.013140e+001 0.000000e+000 4.915063e+001
      endloop
   endfacet
   facet normal 8.660254e-001 0.000000e+000 -5.000000e-001
      outer loop
         vertex 9.526279e+001 5.000000e+000 0.000000e+000
         vertex 1.102628e+002 5.000000e+000 2.598076e+001
         vertex 9.526279e+001 0.000000e+000 0.000000e+000
      endloop
   endfacet
   facet normal 8.660254e-001 0.000000e+000 -5.000000e-001
      outer loop
         vertex 9.526279e+001 0.000000e+000 0.000000e+000
         vertex 1.102628e+002 5.000000e+000 2.598076e+001
         vertex 1.102628e+002 0.000000e+000 2.598076e+001
      endloop
   endfacet
   facet normal -5.000000e-001 0.000000e+000 -8.660254e-001
      outer loop
         vertex 5.513140e+001 5.000000e+000 2.316987e+001
         vertex 9.526279e+001 5.000000e+000 0.000000e+000
         vertex 5.513140e+001 -1.734723e-015 2.316987e+001
      endloop
   endfacet
   facet normal -5.000000e-001 0.000000e+000 -8.660254e-001
      outer loop
         vertex 5.513140e+001 -1.734723e-015 2.316987e+001
         vertex 9.526279e+001 5.000000e+000 0.000000e+000
         vertex 9.526279e+001 -1.734723e-015 0.000000e+000
      endloop
   endfacet
   facet normal 5.000000e-001 0.000000e+000 -8.660254e-001
      outer loop
         vertex 1.500000e+001 5.000000e+000 0.000000e+000
         vertex 5.513140e+001 5.000000e+000 2.316987e+001
         vertex 1.500000e+001 0.000000e+000 0.000000e+000
      endloop
   endfacet
   facet normal 5.000000e-001 0.000000e+000 -8.660254e-001
      outer loop
         vertex 1.500000e+001 0.000000e+000 0.000000e+000
         vertex 5.513140e+001 5.000000e+000 2.316987e+001
         vertex 5.513140e+001 0.000000e+000 2.316987e+001
      endloop
   endfacet
   facet normal -8.660254e-001 0.000000e+000 -5.000000e-001
      outer loop
         vertex 0.000000e+000 5.000000e+000 2.598076e+001
         vertex 1.500000e+001 5.000000e+000 0.000000e+000
         vertex 0.000000e+000 0.000000e+000 2.598076e+001
      endloop
   endfacet
   facet normal -8.660254e-001 0.000000e+000 -5.000000e-001
      outer loop
         vertex 0.000000e+000 0.000000e+000 2.598076e+001
         vertex 1.500000e+001 5.000000e+000 0.000000e+000
         vertex 1.500000e+001 0.000000e+000 0.000000e+000
      endloop
   endfacet
   facet normal -5.000000e-001 0.000000e+000 8.660254e-001
      outer loop
         vertex 4.013140e+001 5.000000e+000 4.915063e+001
         vertex 0.000000e+000 5.000000e+000 2.598076e+001
         vertex 4.013140e+001 -1.734723e-015 4.915063e+001
      endloop
   endfacet
   facet normal -5.000000e-001 0.000000e+000 8.660254e-001
      outer loop
         vertex 4.013140e+001 -1.734723e-015 4.915063e+001
         vertex 0.000000e+000 5.000000e+000 2.598076e+001
         vertex 0.000000e+000 -1.734723e-015 2.598076e+001
      endloop
   endfacet
   facet normal -1.000000e+000 0.000000e+000 -7.486979e-017
      outer loop
         vertex 4.013140e+001 5.000000e+000 9.549038e+001
         vertex 4.013140e+001 5.000000e+000 4.915063e+001
         vertex 4.013140e+001 0.000000e+000 9.549038e+001
      endloop
   endfacet
   facet normal -1.000000e+000 0.000000e+000 -7.486979e-017
      outer loop
         vertex 4.013140e+001 0.000000e+000 9.549038e+001
         vertex 4.013140e+001 5.000000e+000 4.915063e+001
         vertex 4.013140e+001 0.000000e+000 4.915063e+001
      endloop
   endfacet
   facet normal 0.000000e+000 0.000000e+000 1.000000e+000
      outer loop
         vertex 7.013140e+001 5.000000e+000 9.549038e+001
         vertex 4.013140e+001 5.000000e+000 9.549038e+001
         vertex 7.013140e+001 0.000000e+000 9.549038e+001
      endloop
   endfacet
   facet normal 0.000000e+000 0.000000e+000 1.000000e+000
      outer loop
         vertex 7.013140e+001 0.000000e+000 9.549038e+001
         vertex 4.013140e+001 5.000000e+000 9.549038e+001
         vertex 4.013140e+001 0.000000e+000 9.549038e+001
      endloop
   endfacet
   facet normal -5.807913e-002 0.000000e+000 9.983119e-001
      outer loop
         vertex 5.513140e+001 5.000000e+000 3.549038e+001
         vertex 5.513140e+001 0.000000e+000 3.549038e+001
         vertex 5.599964e+001 5.000000e+000 3.556634e+001
      endloop
   endfacet
   facet normal -1.161583e-001 0.000000e+000 9.932307e-001
      outer loop
         vertex 5.599964e+001 5.000000e+000 3.556634e+001
         vertex 5.513140e+001 0.000000e+000 3.549038e+001
         vertex 5.599964e+001 0.000000e+000 3.556634e+001
      endloop
   endfacet
   facet normal -2.305519e-001 0.000000e+000 9.730600e-001
      outer loop
         vertex 5.599964e+001 5.000000e+000 3.556634e+001
         vertex 5.599964e+001 0.000000e+000 3.556634e+001
         vertex 5.684150e+001 5.000000e+000 3.579192e+001
      endloop
   endfacet
   facet normal -2.868663e-001 0.000000e+000 9.579706e-001
      outer loop
         vertex 5.684150e+001 5.000000e+000 3.579192e+001
         vertex 5.599964e+001 0.000000e+000 3.556634e+001
         vertex 5.684150e+001 0.000000e+000 3.579192e+001
      endloop
   endfacet
   facet normal -3.960194e-001 0.000000e+000 9.182422e-001
      outer loop
         vertex 5.684150e+001 5.000000e+000 3.579192e+001
         vertex 5.684150e+001 0.000000e+000 3.579192e+001
         vertex 5.763140e+001 5.000000e+000 3.616025e+001
      endloop
   endfacet
   facet normal -4.488580e-001 0.000000e+000 8.936031e-001
      outer loop
         vertex 5.763140e+001 5.000000e+000 3.616025e+001
         vertex 5.684150e+001 0.000000e+000 3.579192e+001
         vertex 5.763140e+001 0.000000e+000 3.616025e+001
      endloop
   endfacet
   facet normal -5.494540e-001 0.000000e+000 8.355240e-001
      outer loop
         vertex 5.763140e+001 5.000000e+000 3.616025e+001
         vertex 5.763140e+001 0.000000e+000 3.616025e+001
         vertex 5.834534e+001 5.000000e+000 3.666016e+001
      endloop
   endfacet
   facet normal -5.972114e-001 0.000000e+000 8.020838e-001
      outer loop
         vertex 5.834534e+001 5.000000e+000 3.666016e+001
         vertex 5.763140e+001 0.000000e+000 3.616025e+001
         vertex 5.834534e+001 0.000000e+000 3.666016e+001
      endloop
   endfacet
   facet normal -6.861938e-001 0.000000e+000 7.274188e-001
      outer loop
         vertex 5.834534e+001 5.000000e+000 3.666016e+001
         vertex 5.834534e+001 0.000000e+000 3.666016e+001
         vertex 5.896162e+001 5.000000e+000 3.727644e+001
      endloop
   endfacet
   facet normal -7.274188e-001 0.000000e+000 6.861938e-001
      outer loop
         vertex 5.896162e+001 5.000000e+000 3.727644e+001
         vertex 5.834534e+001 0.000000e+000 3.666016e+001
         vertex 5.896162e+001 0.000000e+000 3.727644e+001
      endloop
   endfacet
   facet normal -8.020838e-001 0.000000e+000 5.972114e-001
      outer loop
         vertex 5.896162e+001 5.000000e+000 3.727644e+001
         vertex 5.896162e+001 0.000000e+000 3.727644e+001
         vertex 5.946152e+001 5.000000e+000 3.799038e+001
      endloop
   endfacet
   facet normal -8.355240e-001 0.000000e+000 5.494540e-001
      outer loop
         vertex 5.946152e+001 5.000000e+000 3.799038e+001
         vertex 5.896162e+001 0.000000e+000 3.727644e+001
         vertex 5.946152e+001 0.000000e+000 3.799038e+001
      endloop
   endfacet
   facet normal -8.936031e-001 0.000000e+000 4.488580e-001
      outer loop
         vertex 5.946152e+001 5.000000e+000 3.799038e+001
         vertex 5.946152e+001 0.000000e+000 3.799038e+001
         vertex 5.982986e+001 5.000000e+000 3.878028e+001
      endloop
   endfacet
   facet normal -9.182422e-001 0.000000e+000 3.960194e-001
      outer loop
         vertex 5.982986e+001 5.000000e+000 3.878028e+001
         vertex 5.946152e+001 0.000000e+000 3.799038e+001
         vertex 5.982986e+001 0.000000e+000 3.878028e+001
      endloop
   endfacet
   facet normal -9.579706e-001 0.000000e+000 2.868663e-001
      outer loop
         vertex 5.982986e+001 5.000000e+000 3.878028e+001
         vertex 5.982986e+001 0.000000e+000 3.878028e+001
         vertex 6.005544e+001 5.000000e+000 3.962214e+001
      endloop
   endfacet
   facet normal -9.730600e-001 0.000000e+000 2.305519e-001
      outer loop
         vertex 6.005544e+001 5.000000e+000 3.962214e+001
         vertex 5.982986e+001 0.000000e+000 3.878028e+001
         vertex 6.005544e+001 0.000000e+000 3.962214e+001
      endloop
   endfacet
   facet normal -9.932307e-001 0.000000e+000 1.161583e-001
      outer loop
         vertex 6.005544e+001 5.000000e+000 3.962214e+001
         vertex 6.005544e+001 0.000000e+000 3.962214e+001
         vertex 6.013140e+001 5.000000e+000 4.049038e+001
      endloop
   endfacet
   facet normal -9.983119e-001 0.000000e+000 5.807913e-002
      outer loop
         vertex 6.013140e+001 5.000000e+000 4.049038e+001
         vertex 6.005544e+001 0.000000e+000 3.962214e+001
         vertex 6.013140e+001 0.000000e+000 4.049038e+001
      endloop
   endfacet
   facet normal -9.983119e-001 0.000000e+000 -5.807913e-002
      outer loop
         vertex 6.013140e+001 5.000000e+000 4.049038e+001
         vertex 6.013140e+001 0.000000e+000 4.049038e+001
         vertex 6.005544e+001 5.000000e+000 4.135862e+001
      endloop
   endfacet
   facet normal -9.932307e-001 0.000000e+000 -1.161583e-001
      outer loop
         vertex 6.005544e+001 5.000000e+000 4.135862e+001
         vertex 6.013140e+001 0.000000e+000 4.049038e+001
         vertex 6.005544e+001 0.000000e+000 4.135862e+001
      endloop
   endfacet
   facet normal -9.730600e-001 0.000000e+000 -2.305519e-001
      outer loop
         vertex 6.005544e+001 5.000000e+000 4.135862e+001
         vertex 6.005544e+001 0.000000e+000 4.135862e+001
         vertex 5.982986e+001 5.000000e+000 4.220049e+001
      endloop
   endfacet
   facet normal -9.579706e-001 0.000000e+000 -2.868663e-001
      outer loop
         vertex 5.982986e+001 5.000000e+000 4.220049e+001
         vertex 6.005544e+001 0.000000e+000 4.135862e+001
         vertex 5.982986e+001 0.000000e+000 4.220049e+001
      endloop
   endfacet
   facet normal -9.182422e-001 0.000000e+000 -3.960194e-001
      outer loop
         vertex 5.982986e+001 5.000000e+000 4.220049e+001
         vertex 5.982986e+001 0.000000e+000 4.220049e+001
         vertex 5.946152e+001 5.000000e+000 4.299038e+001
      endloop
   endfacet
   facet normal -8.936031e-001 0.000000e+000 -4.488580e-001
      outer loop
         vertex 5.946152e+001 5.000000e+000 4.299038e+001
         vertex 5.982986e+001 0.000000e+000 4.220049e+001
         vertex 5.946152e+001 0.000000e+000 4.299038e+001
      endloop
   endfacet
   facet normal -8.355240e-001 0.000000e+000 -5.494540e-001
      outer loop
         vertex 5.946152e+001 5.000000e+000 4.299038e+001
         vertex 5.946152e+001 0.000000e+000 4.299038e+001
         vertex 5.896162e+001 5.000000e+000 4.370432e+001
      endloop
   endfacet
   facet normal -8.020838e-001 0.000000e+000 -5.972114e-001
      outer loop
         vertex 5.896162e+001 5.000000e+000 4.370432e+001
         vertex 5.946152e+001 0.000000e+000 4.299038e+001
         vertex 5.896162e+001 0.000000e+000 4.370432e+001
      endloop
   endfacet
   facet normal -7.274188e-001 0.000000e+000 -6.861938e-001
      outer loop
         vertex 5.896162e+001 5.000000e+000 4.370432e+001
         vertex 5.896162e+001 0.000000e+000 4.370432e+001
         vertex 5.834534e+001 5.000000e+000 4.432060e+001
      endloop
   endfacet
   facet normal -6.861938e-001 0.000000e+000 -7.274188e-001
      outer loop
         vertex 5.834534e+001 5.000000e+000 4.432060e+001
         vertex 5.896162e+001 0.000000e+000 4.370432e+001
         vertex 5.834534e+001 0.000000e+000 4.432060e+001
      endloop
   endfacet
   facet normal -5.972114e-001 0.000000e+000 -8.020838e-001
      outer loop
         vertex 5.834534e+001 5.000000e+000 4.432060e+001
         vertex 5.834534e+001 0.000000e+000 4.432060e+001
         vertex 5.763140e+001 5.000000e+000 4.482051e+001
      endloop
   endfacet
   facet normal -5.494540e-001 0.000000e+000 -8.355240e-001
      outer loop
         vertex 5.763140e+001 5.000000e+000 4.482051e+001
         vertex 5.834534e+001 0.000000e+000 4.432060e+001
         vertex 5.763140e+001 0.000000e+000 4.482051e+001
      endloop
   endfacet
   facet normal -4.488580e-001 0.000000e+000 -8.936031e-001
      outer loop
         vertex 5.763140e+001 5.000000e+000 4.482051e+001
         vertex 5.763140e+001 0.000000e+000 4.482051e+001
         vertex 5.684150e+001 5.000000e+000 4.518884e+001
      endloop
   endfacet
   facet normal -3.960194e-001 0.000000e+000 -9.182422e-001
      outer loop
         vertex 5.684150e+001 5.000000e+000 4.518884e+001
         vertex 5.763140e+001 0.000000e+000 4.482051e+001
         vertex 5.684150e+001 0.000000e+000 4.518884e+001
      endloop
   endfacet
   facet normal -2.868663e-001 0.000000e+000 -9.579706e-001
      outer loop
         vertex 5.684150e+001 5.000000e+000 4.518884e+001
         vertex 5.684150e+001 0.000000e+000 4.518884e+001
         vertex 5.599964e+001 5.000000e+000 4.541442e+001
      endloop
   endfacet
   facet normal -2.305519e-001 0.000000e+000 -9.730600e-001
      outer loop
         vertex 5.599964e+001 5.000000e+000 4.541442e+001
         vertex 5.684150e+001 0.000000e+000 4.518884e+001
         vertex 5.599964e+001 0.000000e+000 4.541442e+001
      endloop
   endfacet
   facet normal -1.161583e-001 0.000000e+000 -9.932307e-001
      outer loop
         vertex 5.599964e+001 5.000000e+000 4.541442e+001
         vertex 5.599964e+001 0.000000e+000 4.541442e+001
         vertex 5.513140e+001 5.000000e+000 4.549038e+001
      endloop
   endfacet
   facet normal -5.807913e-002 0.000000e+000 -9.983119e-001
      outer loop
         vertex 5.513140e+001 5.000000e+000 4.549038e+001
         vertex 5.599964e+001 0.000000e+000 4.541442e+001
         vertex 5.513140e+001 0.000000e+000 4.549038e+001
      endloop
   endfacet
   facet normal 5.807913e-002 0.000000e+000 -9.983119e-001
      outer loop
         vertex 5.513140e+001 5.000000e+000 4.549038e+001
         vertex 5.513140e+001 0.000000e+000 4.549038e+001
         vertex 5.426316e+001 5.000000e+000 4.541442e+001
      endloop
   endfacet
   facet normal 1.161583e-001 0.000000e+000 -9.932307e-001
      outer loop
         vertex 5.426316e+001 5.000000e+000 4.541442e+001
         vertex 5.513140e+001 0.000000e+000 4.549038e+001
         vertex 5.426316e+001 0.000000e+000 4.541442e+001
      endloop
   endfacet
   facet normal 2.305519e-001 0.000000e+000 -9.730600e-001
      outer loop
         vertex 5.426316e+001 5.000000e+000 4.541442e+001
         vertex 5.426316e+001 0.000000e+000 4.541442e+001
         vertex 5.342130e+001 5.000000e+000 4.518884e+001
      endloop
   endfacet
   facet normal 2.868663e-001 0.000000e+000 -9.579706e-001
      outer loop
         vertex 5.342130e+001 5.000000e+000 4.518884e+001
         vertex 5.426316e+001 0.000000e+000 4.541442e+001
         vertex 5.342130e+001 0.000000e+000 4.518884e+001
      endloop
   endfacet
   facet normal 3.960194e-001 0.000000e+000 -9.182422e-001
      outer loop
         vertex 5.342130e+001 5.000000e+000 4.518884e+001
         vertex 5.342130e+001 0.000000e+000 4.518884e+001
         vertex 5.263140e+001 5.000000e+000 4.482051e+001
      endloop
   endfacet
   facet normal 4.488580e-001 0.000000e+000 -8.936031e-001
      outer loop
         vertex 5.263140e+001 5.000000e+000 4.482051e+001
         vertex 5.342130e+001 0.000000e+000 4.518884e+001
         vertex 5.263140e+001 0.000000e+000 4.482051e+001
      endloop
   endfacet
   facet normal 5.494540e-001 0.000000e+000 -8.355240e-001
      outer loop
         vertex 5.263140e+001 5.000000e+000 4.482051e+001
         vertex 5.263140e+001 0.000000e+000 4.482051e+001
         vertex 5.191746e+001 5.000000e+000 4.432060e+001
      endloop
   endfacet
   facet normal 5.972114e-001 0.000000e+000 -8.020838e-001
      outer loop
         vertex 5.191746e+001 5.000000e+000 4.432060e+001
         vertex 5.263140e+001 0.000000e+000 4.482051e+001
         vertex 5.191746e+001 0.000000e+000 4.432060e+001
      endloop
   endfacet
   facet normal 6.861938e-001 0.000000e+000 -7.274188e-001
      outer loop
         vertex 5.191746e+001 5.000000e+000 4.432060e+001
         vertex 5.191746e+001 0.000000e+000 4.432060e+001
         vertex 5.130118e+001 5.000000e+000 4.370432e+001
      endloop
   endfacet
   facet normal 7.274188e-001 0.000000e+000 -6.861938e-001
      outer loop
         vertex 5.130118e+001 5.000000e+000 4.370432e+001
         vertex 5.191746e+001 0.000000e+000 4.432060e+001
         vertex 5.130118e+001 0.000000e+000 4.370432e+001
      endloop
   endfacet
   facet normal 8.020838e-001 0.000000e+000 -5.972114e-001
      outer loop
         vertex 5.130118e+001 5.000000e+000 4.370432e+001
         vertex 5.130118e+001 0.000000e+000 4.370432e+001
         vertex 5.080127e+001 5.000000e+000 4.299038e+001
      endloop
   endfacet
   facet normal 8.355240e-001 0.000000e+000 -5.494540e-001
      outer loop
         vertex 5.080127e+001 5.000000e+000 4.299038e+001
         vertex 5.130118e+001 0.000000e+000 4.370432e+001
         vertex 5.080127e+001 0.000000e+000 4.299038e+001
      endloop
   endfacet
   facet normal 8.936031e-001 0.000000e+000 -4.488580e-001
      outer loop
         vertex 5.080127e+001 5.000000e+000 4.299038e+001
         vertex 5.080127e+001 0.000000e+000 4.299038e+001
         vertex 5.043293e+001 5.000000e+000 4.220049e+001
      endloop
   endfacet
   facet normal 9.182422e-001 0.000000e+000 -3.960194e-001
      outer loop
         vertex 5.043293e+001 5.000000e+000 4.220049e+001
         vertex 5.080127e+001 0.000000e+000 4.299038e+001
         vertex 5.043293e+001 0.000000e+000 4.220049e+001
      endloop
   endfacet
   facet normal 9.579706e-001 0.000000e+000 -2.868663e-001
      outer loop
         vertex 5.043293e+001 5.000000e+000 4.220049e+001
         vertex 5.043293e+001 0.000000e+000 4.220049e+001
         vertex 5.020736e+001 5.000000e+000 4.135862e+001
      endloop
   endfacet
   facet normal 9.730600e-001 0.000000e+000 -2.305519e-001
      outer loop
         vertex 5.020736e+001 5.000000e+000 4.135862e+001
         vertex 5.043293e+001 0.000000e+000 4.220049e+001
         vertex 5.020736e+001 0.000000e+000 4.135862e+001
      endloop
   endfacet
   facet normal 9.932307e-001 0.000000e+000 -1.161583e-001
      outer loop
         vertex 5.020736e+001 5.000000e+000 4.135862e+001
         vertex 5.020736e+001 0.000000e+000 4.135862e+001
         vertex 5.013140e+001 5.000000e+000 4.049038e+001
      endloop
   endfacet
   facet normal 9.983119e-001 0.000000e+000 -5.807913e-002
      outer loop
         vertex 5.013140e+001 5.000000e+000 4.049038e+001
         vertex 5.020736e+001 0.000000e+000 4.135862e+001
         vertex 5.013140e+001 0.000000e+000 4.049038e+001
      endloop
   endfacet
   facet normal 9.983119e-001 0.000000e+000 5.807913e-002
      outer loop
         vertex 5.013140e+001 5.000000e+000 4.049038e+001
         vertex 5.013140e+001 0.000000e+000 4.049038e+001
         vertex 5.020736e+001 5.000000e+000 3.962214e+001
      endloop
   endfacet
   facet normal 9.932307e-001 0.000000e+000 1.161583e-001
      outer loop
         vertex 5.020736e+001 5.000000e+000 3.962214e+001
         vertex 5.013140e+001 0.000000e+000 4.049038e+001
         vertex 5.020736e+001 0.000000e+000 3.962214e+001
      endloop
   endfacet
   facet normal 9.730600e-001 0.000000e+000 2.305519e-001
      outer loop
         vertex 5.020736e+001 5.000000e+000 3.962214e+001
         vertex 5.020736e+001 0.000000e+000 3.962214e+001
         vertex 5.043293e+001 5.000000e+000 3.878028e+001
      endloop
   endfacet
   facet normal 9.579706e-001 0.000000e+000 2.868663e-001
      outer loop
         vertex 5.043293e+001 5.000000e+000 3.878028e+001
         vertex 5.020736e+001 0.000000e+000 3.962214e+001
         vertex 5.043293e+001 0.000000e+000 3.878028e+001
      endloop
   endfacet
   facet normal 9.182422e-001 0.000000e+000 3.960194e-001
      outer loop
         vertex 5.043293e+001 5.000000e+000 3.878028e+001
         vertex 5.043293e+001 0.000000e+000 3.878028e+001
         vertex 5.080127e+001 5.000000e+000 3.799038e+001
      endloop
   endfacet
   facet normal 8.936031e-001 0.000000e+000 4.488580e-001
      outer loop
         vertex 5.080127e+001 5.000000e+000 3.799038e+001
         vertex 5.043293e+001 0.000000e+000 3.878028e+001
         vertex 5.080127e+001 0.000000e+000 3.799038e+001
      endloop
   endfacet
   facet normal 8.355240e-001 0.000000e+000 5.494540e-001
      outer loop
         vertex 5.080127e+001 5.000000e+000 3.799038e+001
         vertex 5.080127e+001 0.000000e+000 3.799038e+001
         vertex 5.130118e+001 5.000000e+000 3.727644e+001
      endloop
   endfacet
   facet normal 8.020838e-001 0.000000e+000 5.972114e-001
      outer loop
         vertex 5.130118e+001 5.000000e+000 3.727644e+001
         vertex 5.080127e+001 0.000000e+000 3.799038e+001
         vertex 5.130118e+001 0.000000e+000 3.727644e+001
      endloop
   endfacet
   facet normal 7.274188e-001 0.000000e+000 6.861938e-001
      outer loop
         vertex 5.130118e+001 5.000000e+000 3.727644e+001
         vertex 5.130118e+001 0.000000e+000 3.727644e+001
         vertex 5.191746e+001 5.000000e+000 3.666016e+001
      endloop
   endfacet
   facet normal 6.861938e-001 0.000000e+000 7.274188e-001
      outer loop
         vertex 5.191746e+001 5.000000e+000 3.666016e+001
         vertex 5.130118e+001 0.000000e+000 3.727644e+001
         vertex 5.191746e+001 0.000000e+000 3.666016e+001
      endloop
   endfacet
   facet normal 5.972114e-001 0.000000e+000 8.020838e-001
      outer loop
         vertex 5.191746e+001 5.000000e+000 3.666016e+001
         vertex 5.191746e+001 0.000000e+000 3.666016e+001
         vertex 5.263140e+001 5.000000e+000 3.616025e+001
      endloop
   endfacet
   facet normal 5.494540e-001 0.000000e+000 8.355240e-001
      outer loop
         vertex 5.263140e+001 5.000000e+000 3.616025e+001
         vertex 5.191746e+001 0.000000e+000 3.666016e+001
         vertex 5.263140e+001 0.000000e+000 3.616025e+001
      endloop
   endfacet
   facet normal 4.488580e-001 0.000000e+000 8.936031e-001
      outer loop
         vertex 5.263140e+001 5.000000e+000 3.616025e+001
         vertex 5.263140e+001 0.000000e+000 3.616025e+001
         vertex 5.342130e+001 5.000000e+000 3.579192e+001
      endloop
   endfacet
   facet normal 3.960194e-001 0.000000e+000 9.182422e-001
      outer loop
         vertex 5.342130e+001 5.000000e+000 3.579192e+001
         vertex 5.263140e+001 0.000000e+000 3.616025e+001
         vertex 5.342130e+001 0.000000e+000 3.579192e+001
      endloop
   endfacet
   facet normal 2.868663e-001 0.000000e+000 9.579706e-001
      outer loop
         vertex 5.342130e+001 5.000000e+000 3.579192e+001
         vertex 5.342130e+001 0.000000e+000 3.579192e+001
         vertex 5.426316e+001 5.000000e+000 3.556634e+001
      endloop
   endfacet
   facet normal 2.305519e-001 0.000000e+000 9.730600e-001
      outer loop
         vertex 5.426316e+001 5.000000e+000 3.556634e+001
         vertex 5.342130e+001 0.000000e+000 3.579192e+001
         vertex 5.426316e+001 0.000000e+000 3.556634e+001
      endloop
   endfacet
   facet normal 1.161583e-001 0.000000e+000 9.932307e-001
      outer loop
         vertex 5.426316e+001 5.000000e+000 3.556634e+001
         vertex 5.426316e+001 0.000000e+000 3.556634e+001
         vertex 5.513140e+001 5.000000e+000 3.549038e+001
      endloop
   endfacet
   facet normal 5.807913e-002 0.000000e+000 9.983119e-001
      outer loop
         vertex 5.513140e+001 5.000000e+000 3.549038e+001
         vertex 5.426316e+001 0.000000e+000 3.556634e+001
         vertex 5.513140e+001 0.000000e+000 3.549038e+001
      endloop
   endfacet
endsolid