solid Created by Gmsh
facet normal 1 0 0
  outer loop
    vertex 0.008 0.03854844021078245 0.01026124982803343
    vertex 0.008 0.03580831515881694 0.00496208570354978
    vertex 0.008 0.0412083727802156 0.005072521021749227
  endloop
endfacet
facet normal 1 0 0
  outer loop
    vertex 0.008 0.0412083727802156 0.005072521021749227
    vertex 0.008 0.04693890496130999 0.005201598359308225
    vertex 0.008 0.04371515263048285 0.01008170364543501
  endloop
endfacet
facet normal 1 0 0
  outer loop
    vertex 0.008 0.01380159777619585 0.01477196427100102
    vertex 0.008 0.008214195038211025 0.01496194630582063
    vertex 0.008 0.01130639178808514 0.009905502584717878
  endloop
endfacet
facet normal 1 0 0
  outer loop
    vertex 0.008 0.04371515263048285 0.01008170364543501
    vertex 0.008 0.03854844021078245 0.01026124982803343
    vertex 0.008 0.0412083727802156 0.005072521021749227
  endloop
endfacet
facet normal 1 -0 0
  outer loop
    vertex 0.008 0.01130639178808514 0.009905502584717878
    vertex 0.008 0.01654801707568602 0.009668766258999071
    vertex 0.008 0.01380159777619585 0.01477196427100102
  endloop
endfacet
facet normal 1 -0 0
  outer loop
    vertex 0.008 0.01649999999999998 0.02
    vertex 0.008 0.01925546225664053 0.0146896383033553
    vertex 0.008 0.022 0.02
  endloop
endfacet
facet normal 1 -0 0
  outer loop
    vertex 0.008 0.03032600782336962 0.01497054855750927
    vertex 0.008 0.03327137485272239 0.009551091456264506
    vertex 0.008 0.03581838505481931 0.01509414090521155
  endloop
endfacet
facet normal 1 0 0
  outer loop
    vertex 0.008 0.02760861145943297 0.01007224756988267
    vertex 0.008 0.02478014830820702 0.004885816568282681
    vertex 0.008 0.0303217031091812 0.004887651915251514
  endloop
endfacet
facet normal 1 0 0
  outer loop
    vertex 0.008 0.0220022236397369 0.009597495737267552
    vertex 0.008 0.02760861145943297 0.01007224756988267
    vertex 0.008 0.02475767557324307 0.0151058114136969
  endloop
endfacet
facet normal 1 -0 0
  outer loop
    vertex 0.008 0.03327137485272239 0.009551091456264506
    vertex 0.008 0.03580831515881694 0.00496208570354978
    vertex 0.008 0.03854844021078245 0.01026124982803343
  endloop
endfacet
facet normal 1 -0 0
  outer loop
    vertex 0.008 0.02760861145943297 0.01007224756988267
    vertex 0.008 0.03327137485272239 0.009551091456264506
    vertex 0.008 0.03032600782336962 0.01497054855750927
  endloop
endfacet
facet normal 1 0 0
  outer loop
    vertex 0.008 0.022 0.02
    vertex 0.008 0.01925546225664053 0.0146896383033553
    vertex 0.008 0.02475767557324307 0.0151058114136969
  endloop
endfacet
facet normal 1 0 0
  outer loop
    vertex 0.008 0.02475767557324307 0.0151058114136969
    vertex 0.008 0.01925546225664053 0.0146896383033553
    vertex 0.008 0.0220022236397369 0.009597495737267552
  endloop
endfacet
facet normal 1 -0 0
  outer loop
    vertex 0.008 0.0220022236397369 0.009597495737267552
    vertex 0.008 0.02478014830820702 0.004885816568282681
    vertex 0.008 0.02760861145943297 0.01007224756988267
  endloop
endfacet
facet normal 1 0 -0
  outer loop
    vertex 0.008 0.01654801707568602 0.009668766258999071
    vertex 0.008 0.01925546225664053 0.0146896383033553
    vertex 0.008 0.01380159777619585 0.01477196427100102
  endloop
endfacet
facet normal 1 -0 0
  outer loop
    vertex 0.008 0.01380159777619585 0.01477196427100102
    vertex 0.008 0.01925546225664053 0.0146896383033553
    vertex 0.008 0.01649999999999998 0.02
  endloop
endfacet
facet normal 1 0 -0
  outer loop
    vertex 0.008 0.0303217031091812 0.004887651915251514
    vertex 0.008 0.03327137485272239 0.009551091456264506
    vertex 0.008 0.02760861145943297 0.01007224756988267
  endloop
endfacet
facet normal 1 0 -0
  outer loop
    vertex 0.008 0.04693890496130999 0.005201598359308225
    vertex 0.008 0.04797014582380064 0.01004740744933913
    vertex 0.008 0.04371515263048285 0.01008170364543501
  endloop
endfacet
facet normal 1 0 0
  outer loop
    vertex 0.008 0.008214195038211025 0.01496194630582063
    vertex 0.008 0.007066449640169024 0.009984273694519978
    vertex 0.008 0.01130639178808514 0.009905502584717878
  endloop
endfacet
facet normal 1 0 0
  outer loop
    vertex 0.008 0.03327137485272239 0.009551091456264506
    vertex 0.008 0.03854844021078245 0.01026124982803343
    vertex 0.008 0.03581838505481931 0.01509414090521155
  endloop
endfacet
facet normal 1 0 -0
  outer loop
    vertex 0.008 0.02760861145943297 0.01007224756988267
    vertex 0.008 0.03032600782336962 0.01497054855750927
    vertex 0.008 0.02475767557324307 0.0151058114136969
  endloop
endfacet
facet normal 1 0 -0
  outer loop
    vertex 0.008 0.011 0
    vertex 0.008 0.01371619938957509 0.004785468762675181
    vertex 0.008 0.008048844696559487 0.005024815275617492
  endloop
endfacet
facet normal 1 -0 0
  outer loop
    vertex 0.008 0.044 0.02
    vertex 0.008 0.04695860231045218 0.01498173808757795
    vertex 0.008 0.0495 0.02
  endloop
endfacet
facet normal 1 0 0
  outer loop
    vertex 0.008 0.011 0
    vertex 0.008 0.008048844696559487 0.005024815275617492
    vertex 0.008 0.005500000000000002 0
  endloop
endfacet
facet normal 1 0 0
  outer loop
    vertex 0.008 0.01371619938957509 0.004785468762675181
    vertex 0.008 0.01130639178808514 0.009905502584717878
    vertex 0.008 0.008048844696559487 0.005024815275617492
  endloop
endfacet
facet normal 1 -0 0
  outer loop
    vertex 0.008 0.0275 0.02
    vertex 0.008 0.03032600782336962 0.01497054855750927
    vertex 0.008 0.033 0.02
  endloop
endfacet
facet normal 1 0 0
  outer loop
    vertex 0.008 0.03581838505481931 0.01509414090521155
    vertex 0.008 0.04131055394430956 0.01520677454310582
    vertex 0.008 0.0385 0.02
  endloop
endfacet
facet normal 1 0 0
  outer loop
    vertex 0.008 0.0303217031091812 0.004887651915251514
    vertex 0.008 0.03580831515881694 0.00496208570354978
    vertex 0.008 0.03327137485272239 0.009551091456264506
  endloop
endfacet
facet normal 1 0 0
  outer loop
    vertex 0.008 0.044 0.02
    vertex 0.008 0.04131055394430956 0.01520677454310582
    vertex 0.008 0.04695860231045218 0.01498173808757795
  endloop
endfacet
facet normal 1 0 0
  outer loop
    vertex 0.008 0.0165 0
    vertex 0.008 0.01371619938957509 0.004785468762675181
    vertex 0.008 0.011 0
  endloop
endfacet
facet normal 1 0 0
  outer loop
    vertex 0.008 0.01924835164089103 0.004757504187294342
    vertex 0.008 0.01371619938957509 0.004785468762675181
    vertex 0.008 0.0165 0
  endloop
endfacet
facet normal 1 0 0
  outer loop
    vertex 0.008 0.033 0.02
    vertex 0.008 0.03032600782336962 0.01497054855750927
    vertex 0.008 0.03581838505481931 0.01509414090521155
  endloop
endfacet
facet normal 1 -0 0
  outer loop
    vertex 0.008 0.02475767557324307 0.0151058114136969
    vertex 0.008 0.03032600782336962 0.01497054855750927
    vertex 0.008 0.0275 0.02
  endloop
endfacet
facet normal 1 0 0
  outer loop
    vertex 0.008 0.04131055394430956 0.01520677454310582
    vertex 0.008 0.04371515263048285 0.01008170364543501
    vertex 0.008 0.04695860231045218 0.01498173808757795
  endloop
endfacet
facet normal 1 0 -0
  outer loop
    vertex 0.008 0.01371619938957509 0.004785468762675181
    vertex 0.008 0.01654801707568602 0.009668766258999071
    vertex 0.008 0.01130639178808514 0.009905502584717878
  endloop
endfacet
facet normal 1 -0 0
  outer loop
    vertex 0.008 0.03581838505481931 0.01509414090521155
    vertex 0.008 0.03854844021078245 0.01026124982803343
    vertex 0.008 0.04131055394430956 0.01520677454310582
  endloop
endfacet
facet normal 1 0 0
  outer loop
    vertex 0.008 0.01924835164089103 0.004757504187294342
    vertex 0.008 0.01654801707568602 0.009668766258999071
    vertex 0.008 0.01371619938957509 0.004785468762675181
  endloop
endfacet
facet normal 1 -0 0
  outer loop
    vertex 0.008 0.0385 0.02
    vertex 0.008 0.04131055394430956 0.01520677454310582
    vertex 0.008 0.044 0.02
  endloop
endfacet
facet normal 1 0 0
  outer loop
    vertex 0.008 0.0303217031091812 0.004887651915251514
    vertex 0.008 0.02478014830820702 0.004885816568282681
    vertex 0.008 0.0275 0
  endloop
endfacet
facet normal 1 0 0
  outer loop
    vertex 0.008 0.0275 0
    vertex 0.008 0.02478014830820702 0.004885816568282681
    vertex 0.008 0.022 0
  endloop
endfacet
facet normal 1 -0 0
  outer loop
    vertex 0.008 0.01099999999999996 0.02
    vertex 0.008 0.01380159777619585 0.01477196427100102
    vertex 0.008 0.01649999999999998 0.02
  endloop
endfacet
facet normal 1 0 0
  outer loop
    vertex 0.008 0.04400000000000004 0
    vertex 0.008 0.0412083727802156 0.005072521021749227
    vertex 0.008 0.03850000000000002 0
  endloop
endfacet
facet normal 1 -0 0
  outer loop
    vertex 0.008 0.033 0.02
    vertex 0.008 0.03581838505481931 0.01509414090521155
    vertex 0.008 0.0385 0.02
  endloop
endfacet
facet normal 1 0 0
  outer loop
    vertex 0.008 0.033 0
    vertex 0.008 0.0303217031091812 0.004887651915251514
    vertex 0.008 0.0275 0
  endloop
endfacet
facet normal 1 -0 0
  outer loop
    vertex 0.008 0.022 0.02
    vertex 0.008 0.02475767557324307 0.0151058114136969
    vertex 0.008 0.0275 0.02
  endloop
endfacet
facet normal 1 0 0
  outer loop
    vertex 0.008 0.022 0
    vertex 0.008 0.01924835164089103 0.004757504187294342
    vertex 0.008 0.0165 0
  endloop
endfacet
facet normal 1 0 -0
  outer loop
    vertex 0.008 0.022 0
    vertex 0.008 0.02478014830820702 0.004885816568282681
    vertex 0.008 0.01924835164089103 0.004757504187294342
  endloop
endfacet
facet normal 1 0 0
  outer loop
    vertex 0.008 0.0220022236397369 0.009597495737267552
    vertex 0.008 0.01925546225664053 0.0146896383033553
    vertex 0.008 0.01654801707568602 0.009668766258999071
  endloop
endfacet
facet normal 1 0 0
  outer loop
    vertex 0.008 0.01924835164089103 0.004757504187294342
    vertex 0.008 0.02478014830820702 0.004885816568282681
    vertex 0.008 0.0220022236397369 0.009597495737267552
  endloop
endfacet
facet normal 1 0 -0
  outer loop
    vertex 0.008 0.01924835164089103 0.004757504187294342
    vertex 0.008 0.0220022236397369 0.009597495737267552
    vertex 0.008 0.01654801707568602 0.009668766258999071
  endloop
endfacet
facet normal 1 0 -0
  outer loop
    vertex 0.008 0.033 0
    vertex 0.008 0.03580831515881694 0.00496208570354978
    vertex 0.008 0.0303217031091812 0.004887651915251514
  endloop
endfacet
facet normal 1 0 0
  outer loop
    vertex 0.008 0.0412083727802156 0.005072521021749227
    vertex 0.008 0.03580831515881694 0.00496208570354978
    vertex 0.008 0.03850000000000002 0
  endloop
endfacet
facet normal 1 0 0
  outer loop
    vertex 0.008 0.04131055394430956 0.01520677454310582
    vertex 0.008 0.03854844021078245 0.01026124982803343
    vertex 0.008 0.04371515263048285 0.01008170364543501
  endloop
endfacet
facet normal 1 0 0
  outer loop
    vertex 0.008 0.03850000000000002 0
    vertex 0.008 0.03580831515881694 0.00496208570354978
    vertex 0.008 0.033 0
  endloop
endfacet
facet normal 1 0 0
  outer loop
    vertex 0.008 0.04950000000000002 0
    vertex 0.008 0.04693890496130999 0.005201598359308225
    vertex 0.008 0.04400000000000004 0
  endloop
endfacet
facet normal 1 -0 0
  outer loop
    vertex 0.008 0.005499999999999977 0.02
    vertex 0.008 0.008214195038211025 0.01496194630582063
    vertex 0.008 0.01099999999999996 0.02
  endloop
endfacet
facet normal 1 0 0
  outer loop
    vertex 0.008 0 0.01
    vertex 0.008 0.003948045500977389 0.01238199620979684
    vertex 0.008 0 0.015
  endloop
endfacet
facet normal 1 0 0
  outer loop
    vertex 0.008 0.055 0.01
    vertex 0.008 0.05105179052682832 0.007618008051873537
    vertex 0.008 0.055 0.005
  endloop
endfacet
facet normal 1 0 0
  outer loop
    vertex 0.008 0.055 0.015
    vertex 0.008 0.05118627868992986 0.01235398910250095
    vertex 0.008 0.055 0.01
  endloop
endfacet
facet normal 1 0 0
  outer loop
    vertex 0.008 0 0.004999999999999999
    vertex 0.008 0.003814771177012073 0.007647108096647055
    vertex 0.008 0 0.01
  endloop
endfacet
facet normal 1 0 0
  outer loop
    vertex 0.008 0.055 0.01
    vertex 0.008 0.05118627868992986 0.01235398910250095
    vertex 0.008 0.05105179052682832 0.007618008051873537
  endloop
endfacet
facet normal 1 -0 0
  outer loop
    vertex 0.008 0 0.01
    vertex 0.008 0.003814771177012073 0.007647108096647055
    vertex 0.008 0.003948045500977389 0.01238199620979684
  endloop
endfacet
facet normal 1 0 0
  outer loop
    vertex 0.008 0.01099999999999996 0.02
    vertex 0.008 0.008214195038211025 0.01496194630582063
    vertex 0.008 0.01380159777619585 0.01477196427100102
  endloop
endfacet
facet normal 1 0 -0
  outer loop
    vertex 0.008 0.04400000000000004 0
    vertex 0.008 0.04693890496130999 0.005201598359308225
    vertex 0.008 0.0412083727802156 0.005072521021749227
  endloop
endfacet
facet normal 1 0 0
  outer loop
    vertex 0.008 0.05105179052682832 0.007618008051873537
    vertex 0.008 0.04797014582380064 0.01004740744933913
    vertex 0.008 0.04693890496130999 0.005201598359308225
  endloop
endfacet
facet normal 1 -0 0
  outer loop
    vertex 0.008 0.003948045500977389 0.01238199620979684
    vertex 0.008 0.007066449640169024 0.009984273694519978
    vertex 0.008 0.008214195038211025 0.01496194630582063
  endloop
endfacet
facet normal 1 -0 0
  outer loop
    vertex 0.008 0 0.02
    vertex 0.008 0.003532448107837677 0.01646878850312349
    vertex 0.008 0.005499999999999977 0.02
  endloop
endfacet
facet normal 1 0 0
  outer loop
    vertex 0.008 0.055 0
    vertex 0.008 0.05149813909762767 0.003563921282236352
    vertex 0.008 0.04950000000000002 0
  endloop
endfacet
facet normal 1 -0 0
  outer loop
    vertex 0.008 0.0495 0.02
    vertex 0.008 0.05146180368072673 0.01646174949017921
    vertex 0.008 0.055 0.02
  endloop
endfacet
facet normal 1 0 0
  outer loop
    vertex 0.008 0.005500000000000002 0
    vertex 0.008 0.003539410158409497 0.003539343447298428
    vertex 0.008 0 0
  endloop
endfacet
facet normal 1 0 0
  outer loop
    vertex 0.008 0.055 0.005
    vertex 0.008 0.05149813909762767 0.003563921282236352
    vertex 0.008 0.055 0
  endloop
endfacet
facet normal 1 0 0
  outer loop
    vertex 0.008 0 0.015
    vertex 0.008 0.003532448107837677 0.01646878850312349
    vertex 0.008 0 0.02
  endloop
endfacet
facet normal 1 0 0
  outer loop
    vertex 0.008 0.055 0.02
    vertex 0.008 0.05146180368072673 0.01646174949017921
    vertex 0.008 0.055 0.015
  endloop
endfacet
facet normal 1 0 0
  outer loop
    vertex 0.008 0 0
    vertex 0.008 0.003539410158409497 0.003539343447298428
    vertex 0.008 0 0.004999999999999999
  endloop
endfacet
facet normal 1 0 0
  outer loop
    vertex 0.008 0.01130639178808514 0.009905502584717878
    vertex 0.008 0.007066449640169024 0.009984273694519978
    vertex 0.008 0.008048844696559487 0.005024815275617492
  endloop
endfacet
facet normal 1 -0 0
  outer loop
    vertex 0.008 0.04371515263048285 0.01008170364543501
    vertex 0.008 0.04797014582380064 0.01004740744933913
    vertex 0.008 0.04695860231045218 0.01498173808757795
  endloop
endfacet
facet normal 1 0 0
  outer loop
    vertex 0.008 0.005499999999999977 0.02
    vertex 0.008 0.003532448107837677 0.01646878850312349
    vertex 0.008 0.008214195038211025 0.01496194630582063
  endloop
endfacet
facet normal 1 0 -0
  outer loop
    vertex 0.008 0.04950000000000002 0
    vertex 0.008 0.05149813909762767 0.003563921282236352
    vertex 0.008 0.04693890496130999 0.005201598359308225
  endloop
endfacet
facet normal 1 0 0
  outer loop
    vertex 0.008 0.008214195038211025 0.01496194630582063
    vertex 0.008 0.003532448107837677 0.01646878850312349
    vertex 0.008 0.003948045500977389 0.01238199620979684
  endloop
endfacet
facet normal 1 -0 0
  outer loop
    vertex 0.008 0.04693890496130999 0.005201598359308225
    vertex 0.008 0.05149813909762767 0.003563921282236352
    vertex 0.008 0.05105179052682832 0.007618008051873537
  endloop
endfacet
facet normal 1 0 0
  outer loop
    vertex 0.008 0.04695860231045218 0.01498173808757795
    vertex 0.008 0.05146180368072673 0.01646174949017921
    vertex 0.008 0.0495 0.02
  endloop
endfacet
facet normal 1 0 0
  outer loop
    vertex 0.008 0.008048844696559487 0.005024815275617492
    vertex 0.008 0.003539410158409497 0.003539343447298428
    vertex 0.008 0.005500000000000002 0
  endloop
endfacet
facet normal 1 0 0
  outer loop
    vertex 0.008 0.04695860231045218 0.01498173808757795
    vertex 0.008 0.04797014582380064 0.01004740744933913
    vertex 0.008 0.05118627868992986 0.01235398910250095
  endloop
endfacet
facet normal 1 0 0
  outer loop
    vertex 0.008 0.008048844696559487 0.005024815275617492
    vertex 0.008 0.007066449640169024 0.009984273694519978
    vertex 0.008 0.003814771177012073 0.007647108096647055
  endloop
endfacet
facet normal 1 0 0
  outer loop
    vertex 0.008 0.003814771177012073 0.007647108096647055
    vertex 0.008 0.003539410158409497 0.003539343447298428
    vertex 0.008 0.008048844696559487 0.005024815275617492
  endloop
endfacet
facet normal 1 0 -0
  outer loop
    vertex 0.008 0.05118627868992986 0.01235398910250095
    vertex 0.008 0.05146180368072673 0.01646174949017921
    vertex 0.008 0.04695860231045218 0.01498173808757795
  endloop
endfacet
facet normal 1 0 0
  outer loop
    vertex 0.008 0.003948045500977389 0.01238199620979684
    vertex 0.008 0.003532448107837677 0.01646878850312349
    vertex 0.008 0 0.015
  endloop
endfacet
facet normal 1 0 0
  outer loop
    vertex 0.008 0.05105179052682832 0.007618008051873537
    vertex 0.008 0.05149813909762767 0.003563921282236352
    vertex 0.008 0.055 0.005
  endloop
endfacet
facet normal 1 0 0
  outer loop
    vertex 0.008 0.055 0.015
    vertex 0.008 0.05146180368072673 0.01646174949017921
    vertex 0.008 0.05118627868992986 0.01235398910250095
  endloop
endfacet
facet normal 1 -0 0
  outer loop
    vertex 0.008 0 0.004999999999999999
    vertex 0.008 0.003539410158409497 0.003539343447298428
    vertex 0.008 0.003814771177012073 0.007647108096647055
  endloop
endfacet
facet normal 1 0 0
  outer loop
    vertex 0.008 0.05118627868992986 0.01235398910250095
    vertex 0.008 0.04797014582380064 0.01004740744933913
    vertex 0.008 0.05105179052682832 0.007618008051873537
  endloop
endfacet
facet normal 1 0 0
  outer loop
    vertex 0.008 0.003814771177012073 0.007647108096647055
    vertex 0.008 0.007066449640169024 0.009984273694519978
    vertex 0.008 0.003948045500977389 0.01238199620979684
  endloop
endfacet
endsolid Created by Gmsh
