# Blender v2.79 (sub 0) OBJ File: ''
# www.blender.org
mtllib partBlender.mtl
o BLENDER_SG90_servomotor_.001
v 16.962072 -6.041298 -9.813372
v 7.167786 -3.834788 21.622328
v 17.011841 -4.356164 -9.916150
v 7.217550 -2.149650 21.519552
v 16.932968 -2.675038 -10.058723
v 7.138682 -0.468529 21.376980
v 16.725933 -1.008629 -10.240197
v 6.931646 1.197881 21.195503
v 16.392065 0.632469 -10.459405
v 6.597785 2.838980 20.976292
v 15.933487 2.237809 -10.714961
v 6.139200 4.444323 20.720737
v 15.353128 3.797182 -11.005245
v 5.558839 6.003693 20.430460
v 14.654656 5.300659 -11.328393
v 4.860372 7.507172 20.107309
v 13.842537 6.738669 -11.682356
v 4.048245 8.945181 19.753344
v 12.921938 8.102077 -12.064884
v 3.127643 10.308599 19.370819
v 11.898692 9.382202 -12.473541
v 2.104409 11.588707 18.962156
v 10.779345 10.570898 -12.905733
v 0.985056 12.777407 18.529972
v 9.570990 11.660579 -13.358703
v -0.223300 13.867100 18.077002
v 8.281336 12.644347 -13.829559
v -1.512952 14.850863 17.606140
vn 0.9545 -0.0100 0.2981
vn 0.9538 0.0695 0.2923
vn 0.9470 0.1487 0.2846
vn 0.9343 0.2268 0.2752
vn 0.9155 0.3035 0.2639
vn 0.8910 0.3783 0.2510
vn 0.8608 0.4507 0.2365
vn 0.8251 0.5202 0.2205
vn 0.7841 0.5864 0.2031
vn 0.7382 0.6489 0.1844
vn 0.6875 0.7073 0.1646
vn 0.6325 0.7611 0.1436
vn 0.5735 0.8101 0.1218
usemtl None
s off
f 2//1 1//1 3//1
f 2//1 3//1 4//1
f 4//2 3//2 5//2
f 4//2 5//2 6//2
f 6//3 5//3 7//3
f 6//3 7//3 8//3
f 8//4 7//4 9//4
f 8//4 9//4 10//4
f 10//5 9//5 11//5
f 10//5 11//5 12//5
f 12//6 11//6 13//6
f 12//6 13//6 14//6
f 14//7 13//7 15//7
f 14//7 15//7 16//7
f 16//8 15//8 17//8
f 16//8 17//8 18//8
f 18//9 17//9 19//9
f 18//9 19//9 20//9
f 20//10 19//10 21//10
f 20//10 21//10 22//10
f 22//11 21//11 23//11
f 22//11 23//11 24//11
f 24//12 23//12 25//12
f 24//12 25//12 26//12
f 26//13 25//13 27//13
f 26//13 27//13 28//13
o Cube
v 1.000000 -1.000000 -1.000000
v 1.000000 -1.000000 1.000000
v -1.000000 -1.000000 1.000000
v -1.000000 -1.000000 -1.000000
v 1.000000 1.000000 -0.999999
v 0.999999 1.000000 1.000001
v -1.000000 1.000000 1.000000
v -1.000000 1.000000 -1.000000
vn 0.0000 -1.0000 0.0000
vn 0.0000 1.0000 0.0000
vn 1.0000 0.0000 0.0000
vn -0.0000 -0.0000 1.0000
vn -1.0000 -0.0000 -0.0000
vn 0.0000 0.0000 -1.0000
usemtl Material
s off
f 29//14 30//14 31//14 32//14
f 33//15 36//15 35//15 34//15
f 29//16 33//16 34//16 30//16
f 30//17 34//17 35//17 31//17
f 31//18 35//18 36//18 32//18
f 33//19 29//19 32//19 36//19
