DBRep_DrawableShape

CASCADE Topology V1, (c) Matra-Datavision
Locations 14
1
              1               0               0               0 
              0               1               0               0 
              0               0               1               0 
2  1 -1 0
1
              1               0               0               0 
              0               1               0               0 
              0               0               1               0 
1
              1               0               0               0 
              0               1               0               0 
              0               0               1               0 
2  3 1 4 -1 0
2  4 1 3 -1 0
2  3 -1 0
2  1 -1 4 1 3 -1 0
1
              1               0               0               0 
              0               1               0               0 
              0               0               1              15 
2  3 1 4 -1 9 1 0
2  9 -1 4 1 3 -1 0
2  1 -1 9 -1 4 1 3 -1 0
2  4 -1 0
2  4 -1 9 1 0
Curve2ds 78
1 0 0 0 -1 
1 1.5707963214519896 0 0 -1 
1 14.999999999999986 0 0 -1 
1 0 0 0 -1 
1 0 0 1 0 
1 0 0 1 0 
1 0 -15 1 0 
1 0 0 1 0 
1 12.604724435117552 0 0 -1 
1 0 0 0 -1 
1 0 0 1 0 
1 14.999999999999986 0 0.6087614532076846 -0.79335332172271644 
1 0 -15 1 0 
1 14.999999999999986 0 0.6087614532076846 -0.79335332172271644 
1 12.604724435117546 0 0 -1 
1 0 0 0 -1 
1 0 0 1 0 
1 22.673270364404559 -10 0.60876145320768427 0.79335332172271666 
1 0 -15 1 0 
1 22.673270364404559 -10 0.60876145320768427 0.79335332172271666 
1 15 0 0 -1 
1 0 0 0 -1 
1 0 0 1 0 
1 30.346540728809124 0 1 0 
1 0 -15 1 0 
1 30.346540728809124 0 1 0 
1 12.604724435117543 0 0 -1 
1 0 0 0 -1 
1 0 0 1 0 
1 45.346540728809124 0 0.60876145320768393 -0.793353321722717 
1 0 -15 1 0 
1 45.346540728809124 0 0.60876145320768393 -0.793353321722717 
1 12.604724435117546 0 0 -1 
1 0 0 0 -1 
1 0 0 1 0 
1 53.019811093213683 -10 0.60876145320768427 0.79335332172271666 
1 0 -15 1 0 
1 53.019811093213683 -10 0.60876145320768427 0.79335332172271666 
1 15 0 0 -1 
1 0 0 0 -1 
1 0 0 1 0 
1 60.693081457618248 0 1 0 
1 0 -15 1 0 
1 60.693081457618248 0 1 0 
1 12.60472611034834 0 0 -1 
1 10 0 0 -1 
1 0 0 1 0 
1 75.693081457618248 0 0.60876159062051927 -0.79335321628211442 
1 0 -15 1 0 
1 75.693081457618248 0 0.60876159062051927 -0.79335321628211442 
1 0 -0 0 -1 
1 5 0 0 -1 
1 0 -0 1 0 
1 93.366354573889893 -10 -1 0 
1 0 -15 1 0 
1 93.366354573889893 -10 -1 0 
1 0 0 0 -1 
1 0 -0 0 -1 
1 0 0 1 0 
1 93.366354573889893 -15 0 1 
1 0 -15 1 0 
1 93.366354573889893 -15 0 1 
1 103.36635462731897 0 0 -1 
1 0 0 0 -1 
1 0 -0 1 0 
1 93.366354573889893 -15 -1 0 
1 0 -15 1 0 
1 93.366354573889893 -15 -1 0 
1 5 0 0 -1 
1 3.1415926535897931 0 0 -1 
1 0 0 1 0 
1 -10.000000053429076 -15 0 1 
1 0 -15 1 0 
1 -10.000000053429076 -15 0 1 
1 0 0 1 0 
2 -5.3429076274369436e-08 -10 1 0 -0 1 10
1 0 -15 1 0 
2 -5.3429076274369436e-08 -10 1 0 -0 1 10
Curves 39
1 -93.366354573889893 15 0 0 0 1 
1 -78.366354573889907 15 0 0 0 1 
1 -93.366354573889893 15 0 1 0 0 
1 -93.366354573889893 15 0 1 0 0 
1 -70.693084209485335 5 0 0 0 1 
1 -78.366354573889907 15 0 0.6087614532076846 -0.79335332172271644 0 
1 -78.366354573889907 15 0 0.6087614532076846 -0.79335332172271644 0 
1 -63.019813845080769 15 0 0 0 1 
1 -70.693084209485335 5 0 0.60876145320768427 0.79335332172271666 0 
1 -70.693084209485335 5 0 0.60876145320768427 0.79335332172271666 0 
1 -48.019813845080769 15 0 0 0 1 
1 -63.019813845080769 15 0 1 0 0 
1 -63.019813845080769 15 0 1 0 0 
1 -40.34654348067621 5 0 0 0 1 
1 -48.019813845080769 15 0 0.60876145320768393 -0.793353321722717 0 
1 -48.019813845080769 15 0 0.60876145320768393 -0.793353321722717 0 
1 -32.673273116271645 15 0 0 0 1 
1 -40.34654348067621 5 0 0.60876145320768427 0.79335332172271666 0 
1 -40.34654348067621 5 0 0.60876145320768427 0.79335332172271666 0 
1 -17.673273116271645 15 0 0 0 1 
1 -32.673273116271645 15 0 1 0 0 
1 -32.673273116271645 15 0 1 0 0 
1 -10 5 0 0 0 1 
1 -17.673273116271645 15 0 0.60876159062051927 -0.79335321628211442 0 
1 -17.673273116271645 15 0 0.60876159062051927 -0.79335321628211442 0 
1 0 5 0 0 0 1 
1 0 5 0 -1 0 0 
1 0 5 0 -1 0 0 
1 0 0 0 0 0 1 
1 0 0 0 0 1 0 
1 0 0 0 0 1 0 
1 -103.36635462731897 0 0 0 0 1 
1 0 0 0 -1 0 0 
1 0 0 0 -1 0 0 
1 -103.36635462731897 5 0 0 0 1 
1 -103.36635462731897 0 0 0 1 0 
1 -103.36635462731897 0 0 0 1 0 
2 -93.36635462731897 5 0 0 0 1 1 0 -0 -0 1 0 10
2 -93.36635462731897 5 0 0 0 1 1 0 -0 -0 1 0 10
Polygon3D 0
PolygonOnTriangulations 78
2 1 2 
p 0.0900094670965856 1 0 15 
2 1 2 
p 0.0900094670965856 1 0 15 
2 3 4 
p 0.0900094670965856 1 0 15 
2 1 2 
p 0.0900094670965856 1 0 15 
2 1 3 
p 0.0900094670965856 1 0 15 
2 1 2 
p 0.0900094670965856 1 0 15 
2 2 4 
p 0.0900094670965856 1 0 15 
2 1 2 
p 0.0900094670965856 1 0 15 
2 3 4 
p 0.0900094670965856 1 0 15 
2 1 2 
p 0.0900094670965856 1 0 15 
2 1 3 
p 0.0900094670965856 1 0 12.6047244351176 
2 2 3 
p 0.0900094670965856 1 0 12.6047244351176 
2 2 4 
p 0.0900094670965856 1 0 12.6047244351176 
2 2 3 
p 0.0900094670965856 1 0 12.6047244351176 
2 3 4 
p 0.0900094670965856 1 0 15 
2 1 2 
p 0.0900094670965856 1 0 15 
2 1 3 
p 0.0900094670965856 1 0 12.6047244351175 
2 3 4 
p 0.0900094670965856 1 0 12.6047244351175 
2 2 4 
p 0.0900094670965856 1 0 12.6047244351175 
2 3 4 
p 0.0900094670965856 1 0 12.6047244351175 
2 3 4 
p 0.0900094670965856 1 0 15 
2 1 2 
p 0.0900094670965856 1 0 15 
2 1 3 
p 0.0900094670965856 1 0 15 
2 4 5 
p 0.0900094670965856 1 0 15 
2 2 4 
p 0.0900094670965856 1 0 15 
2 4 5 
p 0.0900094670965856 1 0 15 
2 3 4 
p 0.0900094670965856 1 0 15 
2 1 2 
p 0.0900094670965856 1 0 15 
2 1 3 
p 0.0900094670965856 1 0 12.6047244351175 
2 5 6 
p 0.0900094670965856 1 0 12.6047244351175 
2 2 4 
p 0.0900094670965856 1 0 12.6047244351175 
2 5 6 
p 0.0900094670965856 1 0 12.6047244351175 
2 3 4 
p 0.0900094670965856 1 0 15 
2 1 2 
p 0.0900094670965856 1 0 15 
2 1 3 
p 0.0900094670965856 1 0 12.6047244351175 
2 6 7 
p 0.0900094670965856 1 0 12.6047244351175 
2 2 4 
p 0.0900094670965856 1 0 12.6047244351175 
2 6 7 
p 0.0900094670965856 1 0 12.6047244351175 
2 3 4 
p 0.0900094670965856 1 0 15 
2 1 2 
p 0.0900094670965856 1 0 15 
2 1 3 
p 0.0900094670965856 1 0 15 
2 7 8 
p 0.0900094670965856 1 0 15 
2 2 4 
p 0.0900094670965856 1 0 15 
2 7 8 
p 0.0900094670965856 1 0 15 
2 3 4 
p 0.0900094670965856 1 0 15 
2 3 4 
p 0.0900094670965856 1 0 15 
2 1 3 
p 0.0900094670965856 1 0 12.6047261103483 
2 8 9 
p 0.0900094670965856 1 0 12.6047261103483 
2 2 4 
p 0.0900094670965856 1 0 12.6047261103483 
2 8 9 
p 0.0900094670965856 1 0 12.6047261103483 
2 1 2 
p 0.0900094670965856 1 0 15 
2 3 4 
p 0.0900094670965856 1 0 15 
2 1 3 
p 0.0900094670965856 1 0 10 
2 10 9 
p 0.0900094670965856 1 0 10 
2 2 4 
p 0.0900094670965856 1 0 10 
2 10 9 
p 0.0900094670965856 1 0 10 
2 1 2 
p 0.0900094670965856 1 0 15 
2 1 2 
p 0.0900094670965856 1 0 15 
2 1 3 
p 0.0900094670965856 1 0 5 
2 11 10 
p 0.0900094670965856 1 0 5 
2 2 4 
p 0.0900094670965856 1 0 5 
2 11 10 
p 0.0900094670965856 1 0 5 
2 3 4 
p 0.0900094670965856 1 0 15 
2 1 2 
p 0.0900094670965856 1 0 15 
2 1 3 
p 0.0900094670965856 1 0 103.366354627319 
2 11 12 
p 0.0900094670965856 1 0 103.366354627319 
2 2 4 
p 0.0900094670965856 1 0 103.366354627319 
2 11 12 
p 0.0900094670965856 1 0 103.366354627319 
2 3 4 
p 0.0900094670965856 1 0 15 
2 3 4 
p 0.0900094670965856 1 0 15 
2 1 3 
p 0.0900094670965856 1 0 5 
2 12 13 
p 0.0900094670965856 1 0 5 
2 2 4 
p 0.0900094670965856 1 0 5 
2 12 13 
p 0.0900094670965856 1 0 5 
17 1 5 6 7 8 9 10 11 12 13 14 15 16 17 18 19 3 
p 0.0900094670965856 1 1.57079632145199 1.6689710922106 1.76714586296921 1.86532063372783 1.96349540448644 2.06167017524505 2.15984494600366 2.25801971676228 2.35619448752089 2.4543692582795 2.55254402903811 2.65071879979673 2.74889357055534 2.84706834131395 2.94524311207256 3.04341788283118 3.14159265358979 
17 1 14 15 16 17 18 19 20 21 22 23 24 25 26 27 28 13 
p 0.0900094670965856 1 1.57079632145199 1.6689710922106 1.76714586296921 1.86532063372783 1.96349540448644 2.06167017524505 2.15984494600366 2.25801971676228 2.35619448752089 2.4543692582795 2.55254402903811 2.65071879979673 2.74889357055534 2.84706834131395 2.94524311207256 3.04341788283118 3.14159265358979 
17 2 20 21 22 23 24 25 26 27 28 29 30 31 32 33 34 4 
p 0.0900094670965856 1 1.57079632145199 1.6689710922106 1.76714586296921 1.86532063372783 1.96349540448644 2.06167017524505 2.15984494600366 2.25801971676228 2.35619448752089 2.4543692582795 2.55254402903811 2.65071879979673 2.74889357055534 2.84706834131395 2.94524311207256 3.04341788283118 3.14159265358979 
17 1 14 15 16 17 18 19 20 21 22 23 24 25 26 27 28 13 
p 0.0900094670965856 1 1.57079632145199 1.6689710922106 1.76714586296921 1.86532063372783 1.96349540448644 2.06167017524505 2.15984494600366 2.25801971676228 2.35619448752089 2.4543692582795 2.55254402903811 2.65071879979673 2.74889357055534 2.84706834131395 2.94524311207256 3.04341788283118 3.14159265358979 
Surfaces 15
1 -93.366354573889893 15 0 0 1 0 1 0 0 0 0 -1 
2 -93.36635462731897 5 0 -0 -0 -1 1 0 0 -0 1 -0 10
1 -78.366354573889907 15 0 0.79335332172271644 0.6087614532076846 -0 0.6087614532076846 -0.79335332172271644 0 0 -0 -1 
1 -93.366354573889893 15 0 -0 0 1 1 0 0 0 1 -0 
1 -93.366354573889893 15 0 -0 0 1 1 0 0 0 1 -0 
1 -70.693084209485335 5 0 -0.79335332172271666 0.60876145320768427 0 0.60876145320768427 0.79335332172271666 0 0 0 -1 
1 -63.019813845080769 15 0 0 1 0 1 0 0 0 0 -1 
1 -48.019813845080769 15 0 0.793353321722717 0.60876145320768393 -0 0.60876145320768393 -0.793353321722717 0 0 -0 -1 
1 -40.34654348067621 5 0 -0.79335332172271666 0.60876145320768427 0 0.60876145320768427 0.79335332172271666 0 0 0 -1 
1 -32.673273116271645 15 0 0 1 0 1 0 0 0 0 -1 
1 -17.673273116271645 15 0 0.79335321628211442 0.60876159062051927 -0 0.60876159062051927 -0.79335321628211442 0 0 -0 -1 
1 0 5 0 0 -1 0 -1 0 0 -0 -0 -1 
1 0 0 0 -1 0 0 0 1 0 0 0 -1 
1 0 0 0 0 -1 0 -1 0 0 -0 -0 -1 
1 -103.36635462731897 0 0 -1 0 0 0 1 0 0 0 -1 
Triangulations 15
4 2 1 1.06581410364015e-14
-93.3663545738899 15 0 -93.3663545738899 15 15 -78.3663545738899 15 0 -78.3663545738899 15 15 0 0 0 -15 15 0 15 -15 3 1 2 3 2 4 
34 32 1 0.0120454380302126
-93.3663545738899 15 0 -93.3663545738899 15 15 -103.366354627319 5 0 -103.366354627319 5 15 -94.346525980766 14.9518472716316 0 -95.3172578016281 14.8078528131529 0 -96.2692013583217 14.5694033699237 0 -97.1931889139483 14.2387953404477 0 -98.0803219631838 13.8192126607991 0 -98.9220569297496 13.3146961415777 0 -99.7102874457235 12.7301045526933 0 -100.437422420294 12.0710678307555 0 -101.096459146117 11.3439328597058 0 -101.681050739213 10.5557023468553 0 -102.185567262932 9.71396738298507 0 -102.60514994732 8.82683433599143 0 -102.935757981733 7.90284678213123 0 -103.174207430048 6.95090322671162 0 -103.318201893714 5.98017140661887 0 -94.346525980766 14.9518472716316 15 -95.3172578016281 14.8078528131529 15 -96.2692013583217 14.5694033699237 15 -97.1931889139483 14.2387953404477 15 -98.0803219631838 13.8192126607991 15 -98.9220569297496 13.3146961415777 15 -99.7102874457235 12.7301045526933 15 -100.437422420294 12.0710678307555 15 -101.096459146117 11.3439328597058 15 -101.681050739213 10.5557023468553 15 -102.185567262932 9.71396738298507 15 -102.60514994732 8.82683433599143 15 -102.935757981733 7.90284678213123 15 -103.174207430048 6.95090322671162 15 -103.318201893714 5.98017140661887 15 1.57079632145199 0 1.57079632145199 -15 3.14159265358979 0 3.14159265358979 -15 1.6689710922106 0 1.76714586296921 0 1.86532063372783 0 1.96349540448644 0 2.06167017524505 0 2.15984494600366 0 2.25801971676228 0 2.35619448752089 0 2.4543692582795 0 2.55254402903811 0 2.65071879979673 0 2.74889357055534 0 2.84706834131395 0 2.94524311207256 0 3.04341788283118 0 1.6689710922106 -15 1.76714586296921 -15 1.86532063372783 -15 1.96349540448644 -15 2.06167017524505 -15 2.15984494600366 -15 2.25801971676228 -15 2.35619448752089 -15 2.4543692582795 -15 2.55254402903811 -15 2.65071879979673 -15 2.74889357055534 -15 2.84706834131395 -15 2.94524311207256 -15 3.04341788283118 -15 5 1 2 5 2 20 6 20 21 6 21 22 6 5 20 7 22 23 7 6 22 8 7 23 9 23 24 9 24 25 9 8 23 10 9 25 11 25 26 11 26 27 11 10 25 12 27 28 12 11 27 13 12 28 14 28 29 14 13 28 15 29 30 15 30 31 15 14 29 16 31 32 16 15 31 17 16 32 18 32 33 18 33 34 18 17 32 19 34 4 19 18 34 3 19 4 
4 2 1 1.92142370039363e-14
-78.3663545738899 15 0 -78.3663545738899 15 15 -70.6930842094853 5 0 -70.6930842094853 5 15 0 0 0 -15 12.6047244351176 0 12.6047244351176 -15 3 1 2 3 2 4 
28 26 1 3.46389583683049e-14
-93.3663545738899 15 0 -78.3663545738899 15 0 -70.6930842094853 5 0 -63.0198138450808 15 0 -48.0198138450808 15 0 -40.3465434806762 5 0 -32.6732731162716 15 0 -17.6732731162716 15 0 -10 5 0 0 5 0 0 0 0 -103.366354627319 0 0 -103.366354627319 5 0 -94.346525980766 14.9518472716316 0 -95.3172578016281 14.8078528131529 0 -96.2692013583217 14.5694033699237 0 -97.1931889139483 14.2387953404477 0 -98.0803219631838 13.8192126607991 0 -98.9220569297496 13.3146961415777 0 -99.7102874457235 12.7301045526933 0 -100.437422420294 12.0710678307555 0 -101.096459146117 11.3439328597058 0 -101.681050739213 10.5557023468553 0 -102.185567262932 9.71396738298507 0 -102.60514994732 8.82683433599143 0 -102.935757981733 7.90284678213123 0 -103.174207430048 6.95090322671162 0 -103.318201893714 5.98017140661887 0 0 0 15 0 22.6732703644046 -10 30.3465407288091 -3.73034936274053e-14 45.3465407288091 0 53.0198110932137 -9.99999999999997 60.6930814576182 -3.73034936274053e-14 75.6930814576182 0 83.3663545738899 -9.99999999999997 93.3663545738899 -10 93.3663545738899 -15 -10.0000000534291 -15 -10.0000000534291 -10 -0.980171406876126 -0.0481527283683771 -1.95090322773822 -0.192147186847137 -2.90284678443185 -0.430596630076327 -3.82683434005845 -0.761204659552314 -4.71396738929389 -1.18078733920087 -5.55570235585968 -1.68530385842229 -6.34393287183358 -2.26989544730666 -7.07106784640451 -2.92893216924448 -7.73010457222735 -3.65606714029424 -8.31469616532317 -4.44429765314472 -8.8192126890419 -5.28603261701493 -9.23879537343033 -6.17316566400857 -9.5694034078431 -7.09715321786877 -9.80785285615844 -8.04909677328838 -9.95184731982373 -9.01982859338112 24 25 26 24 26 27 24 27 28 22 23 24 21 22 24 19 20 21 19 21 24 17 18 19 15 16 17 14 15 17 1 13 12 1 28 13 1 24 28 1 17 19 1 19 24 1 14 17 3 1 12 2 1 3 6 4 3 6 3 12 5 4 6 8 7 6 8 6 9 11 6 12 11 9 6 10 9 11 
28 26 1 3.46389583683049e-14
-93.3663545738899 15 0 -78.3663545738899 15 0 -70.6930842094853 5 0 -63.0198138450808 15 0 -48.0198138450808 15 0 -40.3465434806762 5 0 -32.6732731162716 15 0 -17.6732731162716 15 0 -10 5 0 0 5 0 0 0 0 -103.366354627319 0 0 -103.366354627319 5 0 -94.346525980766 14.9518472716316 0 -95.3172578016281 14.8078528131529 0 -96.2692013583217 14.5694033699237 0 -97.1931889139483 14.2387953404477 0 -98.0803219631838 13.8192126607991 0 -98.9220569297496 13.3146961415777 0 -99.7102874457235 12.7301045526933 0 -100.437422420294 12.0710678307555 0 -101.096459146117 11.3439328597058 0 -101.681050739213 10.5557023468553 0 -102.185567262932 9.71396738298507 0 -102.60514994732 8.82683433599143 0 -102.935757981733 7.90284678213123 0 -103.174207430048 6.95090322671162 0 -103.318201893714 5.98017140661887 0 0 0 15 0 22.6732703644046 -10 30.3465407288091 -3.73034936274053e-14 45.3465407288091 0 53.0198110932137 -9.99999999999997 60.6930814576182 -3.73034936274053e-14 75.6930814576182 0 83.3663545738899 -9.99999999999997 93.3663545738899 -10 93.3663545738899 -15 -10.0000000534291 -15 -10.0000000534291 -10 -0.980171406876126 -0.0481527283683771 -1.95090322773822 -0.192147186847137 -2.90284678443185 -0.430596630076327 -3.82683434005845 -0.761204659552314 -4.71396738929389 -1.18078733920087 -5.55570235585968 -1.68530385842229 -6.34393287183358 -2.26989544730666 -7.07106784640451 -2.92893216924448 -7.73010457222735 -3.65606714029424 -8.31469616532317 -4.44429765314472 -8.8192126890419 -5.28603261701493 -9.23879537343033 -6.17316566400857 -9.5694034078431 -7.09715321786877 -9.80785285615844 -8.04909677328838 -9.95184731982373 -9.01982859338112 24 25 26 24 26 27 24 27 28 22 23 24 21 22 24 19 20 21 19 21 24 17 18 19 15 16 17 14 15 17 1 13 12 1 28 13 1 24 28 1 17 19 1 19 24 1 14 17 3 1 12 2 1 3 6 4 3 6 3 12 5 4 6 8 7 6 8 6 9 11 6 12 11 9 6 10 9 11 
4 2 1 8.88178419700125e-15
-70.6930842094853 5 0 -70.6930842094853 5 15 -63.0198138450808 15 0 -63.0198138450808 15 15 0 0 0 -15 12.6047244351175 0 12.6047244351175 -15 3 1 2 3 2 4 
4 2 1 1.95399252334028e-14
-63.0198138450808 15 0 -63.0198138450808 15 15 -48.0198138450808 15 0 -48.0198138450808 15 15 0 0 0 -15 15 0 15 -15 3 1 2 3 2 4 
4 2 1 1.4210854715202e-14
-48.0198138450808 15 0 -48.0198138450808 15 15 -40.3465434806762 5 0 -40.3465434806762 5 15 0 0 0 -15 12.6047244351175 0 12.6047244351175 -15 1 2 4 3 1 4 
4 2 1 2.56228313886305e-14
-40.3465434806762 5 0 -40.3465434806762 5 15 -32.6732731162716 15 0 -32.6732731162716 15 15 0 0 0 -15 12.6047244351175 0 12.6047244351175 -15 1 2 4 3 1 4 
4 2 1 3.10862446895044e-14
-32.6732731162716 15 0 -32.6732731162716 15 15 -17.6732731162716 15 0 -17.6732731162716 15 15 0 0 0 -15 15 0 15 -15 3 1 2 3 2 4 
4 2 1 2.44249065417534e-14
-17.6732731162716 15 0 -17.6732731162716 15 15 -10 5 0 -10 5 15 0 0 0 -15 12.6047261103483 0 12.6047261103483 -15 1 2 4 3 1 4 
4 2 1 0
0 5 0 0 5 15 -10 5 0 -10 5 15 0 0 0 -15 10 0 10 -15 3 1 2 3 2 4 
4 2 1 0
0 0 0 0 0 15 0 5 0 0 5 15 0 0 0 -15 5 0 5 -15 3 1 2 3 2 4 
4 2 1 1.77635683940025e-15
0 0 0 0 0 15 -103.366354627319 0 0 -103.366354627319 0 15 0 0 0 -15 103.366354627319 0 103.366354627319 -15 3 1 2 3 2 4 
4 2 1 2.8421709430404e-14
-103.366354627319 0 0 -103.366354627319 0 15 -103.366354627319 5 0 -103.366354627319 5 15 0 0 0 -15 5 0 5 -15 3 1 2 3 2 4 

TShapes 98
Ve
1e-07
-93.3663545738899 15 0
0 0

0101101
*
Ve
1e-07
-93.3663545738899 15 15
0 0

0101101
*
Ed
 1e-07 1 1 0
1  1 0 0 15
2  1 1 0 0 15
2  2 2 0 0 15
4 G1 1 0 2 0
6  1 2 0
6  2 1 0
0

0101000
+98 2 -97 2 *
Ve
1e-07
-78.3663545738899 15 0
0 0

0101101
*
Ve
1e-07
-78.3663545738899 15 15
0 0

0101101
*
Ed
 1e-07 1 1 0
1  2 0 0 15
2  3 1 0 0 15
2  4 3 0 0 15
6  3 1 0
6  4 3 0
0

0101000
+95 2 -94 2 *
Ed
 1e-07 1 1 0
1  3 0 0 15
2  5 1 6 0 15
2  6 4 7 0 15
6  5 1 6
6  6 4 7
0

0101000
+98 8 -95 8 *
Ed
 1e-07 1 1 0
1  4 0 0 15
2  7 1 11 0 15
2  8 5 7 0 15
6  7 1 11
6  8 5 7
0

0101000
+97 12 -94 12 *
Wi

0101000
+96 0 -93 0 -92 5 +91 10 *
Fa
0  1e-07 1 0
2  1
0101000
+90 0 *
Ve
1e-07
-70.6930842094853 5 0
0 0

0101101
*
Ve
1e-07
-70.6930842094853 5 15
0 0

0101101
*
Ed
 1e-07 1 1 0
1  5 0 0 15
2  9 3 0 0 15
2  10 6 0 0 15
6  9 3 0
6  10 6 0
0

0101000
+88 2 -87 2 *
Ed
 1e-07 1 1 0
1  6 0 0 12.6047244351176
2  11 3 6 0 12.6047244351176
2  12 4 7 0 12.6047244351176
6  11 3 6
6  12 4 7
0

0101000
+95 8 -88 8 *
Ed
 1e-07 1 1 0
1  7 0 0 12.6047244351176
2  13 3 11 0 12.6047244351176
2  14 5 7 0 12.6047244351176
6  13 3 11
6  14 5 7
0

0101000
+94 12 -87 12 *
Wi

0101000
+93 0 -86 0 -85 5 +84 10 *
Fa
0  1e-07 3 0
2  3
0101000
+83 0 *
Ve
1e-07
-63.0198138450808 15 0
0 0

0101101
*
Ve
1e-07
-63.0198138450808 15 15
0 0

0101101
*
Ed
 1e-07 1 1 0
1  8 0 0 15
2  15 6 0 0 15
2  16 7 0 0 15
6  15 6 0
6  16 7 0
0

0101000
+81 2 -80 2 *
Ed
 1e-07 1 1 0
1  9 0 0 12.6047244351175
2  17 6 6 0 12.6047244351175
2  18 4 7 0 12.6047244351175
6  17 6 6
6  18 4 7
0

0101000
+88 8 -81 8 *
Ed
 1e-07 1 1 0
1  10 0 0 12.6047244351175
2  19 6 11 0 12.6047244351175
2  20 5 7 0 12.6047244351175
6  19 6 11
6  20 5 7
0

0101000
+87 12 -80 12 *
Wi

0101000
+86 0 -79 0 -78 5 +77 10 *
Fa
0  1e-07 6 0
2  6
0101000
+76 0 *
Ve
1e-07
-48.0198138450808 15 0
0 0

0101101
*
Ve
1e-07
-48.0198138450808 15 15
0 0

0101101
*
Ed
 1e-07 1 1 0
1  11 0 0 15
2  21 7 0 0 15
2  22 8 0 0 15
6  21 7 0
6  22 8 0
0

0101000
+74 2 -73 2 *
Ed
 1e-07 1 1 0
1  12 0 0 15
2  23 7 6 0 15
2  24 4 7 0 15
6  23 7 6
6  24 4 7
0

0101000
+81 8 -74 8 *
Ed
 1e-07 1 1 0
1  13 0 0 15
2  25 7 11 0 15
2  26 5 7 0 15
6  25 7 11
6  26 5 7
0

0101000
+80 12 -73 12 *
Wi

0101000
+79 0 -72 0 -71 5 +70 10 *
Fa
0  1e-07 7 0
2  7
0101000
+69 0 *
Ve
1e-07
-40.3465434806762 5 0
0 0

0101101
*
Ve
1e-07
-40.3465434806762 5 15
0 0

0101101
*
Ed
 1e-07 1 1 0
1  14 0 0 15
2  27 8 0 0 15
2  28 9 0 0 15
6  27 8 0
6  28 9 0
0

0101000
+67 2 -66 2 *
Ed
 1e-07 1 1 0
1  15 0 0 12.6047244351175
2  29 8 6 0 12.6047244351175
2  30 4 7 0 12.6047244351175
6  29 8 6
6  30 4 7
0

0101000
+74 8 -67 8 *
Ed
 1e-07 1 1 0
1  16 0 0 12.6047244351175
2  31 8 11 0 12.6047244351175
2  32 5 7 0 12.6047244351175
6  31 8 11
6  32 5 7
0

0101000
+73 12 -66 12 *
Wi

0101000
+72 0 -65 0 -64 5 +63 10 *
Fa
0  1e-07 8 0
2  8
0101000
+62 0 *
Ve
1e-07
-32.6732731162716 15 0
0 0

0101101
*
Ve
1e-07
-32.6732731162716 15 15
0 0

0101101
*
Ed
 1e-07 1 1 0
1  17 0 0 15
2  33 9 0 0 15
2  34 10 0 0 15
6  33 9 0
6  34 10 0
0

0101000
+60 2 -59 2 *
Ed
 1e-07 1 1 0
1  18 0 0 12.6047244351175
2  35 9 6 0 12.6047244351175
2  36 4 7 0 12.6047244351175
6  35 9 6
6  36 4 7
0

0101000
+67 8 -60 8 *
Ed
 1e-07 1 1 0
1  19 0 0 12.6047244351175
2  37 9 11 0 12.6047244351175
2  38 5 7 0 12.6047244351175
6  37 9 11
6  38 5 7
0

0101000
+66 12 -59 12 *
Wi

0101000
+65 0 -58 0 -57 5 +56 10 *
Fa
0  1e-07 9 0
2  9
0101000
+55 0 *
Ve
1e-07
-17.6732731162716 15 0
0 0

0101101
*
Ve
1e-07
-17.6732731162716 15 15
0 0

0101101
*
Ed
 1e-07 1 1 0
1  20 0 0 15
2  39 10 0 0 15
2  40 11 0 0 15
6  39 10 0
6  40 11 0
0

0101000
+53 2 -52 2 *
Ed
 1e-07 1 1 0
1  21 0 0 15
2  41 10 6 0 15
2  42 4 7 0 15
6  41 10 6
6  42 4 7
0

0101000
+60 8 -53 8 *
Ed
 1e-07 1 1 0
1  22 0 0 15
2  43 10 11 0 15
2  44 5 7 0 15
6  43 10 11
6  44 5 7
0

0101000
+59 12 -52 12 *
Wi

0101000
+58 0 -51 0 -50 5 +49 10 *
Fa
0  1e-07 10 0
2  10
0101000
+48 0 *
Ve
1e-07
-10 5 0
0 0

0101101
*
Ve
1e-07
-10 5 15
0 0

0101101
*
Ed
 1e-07 1 1 0
1  23 0 0 15
2  45 11 0 0 15
2  46 12 0 0 15
6  45 11 0
6  46 12 0
0

0101000
+46 2 -45 2 *
Ed
 1e-07 1 1 0
1  24 0 0 12.6047261103483
2  47 11 6 0 12.6047261103483
2  48 4 7 0 12.6047261103483
6  47 11 6
6  48 4 7
0

0101000
+53 8 -46 8 *
Ed
 1e-07 1 1 0
1  25 0 0 12.6047261103483
2  49 11 11 0 12.6047261103483
2  50 5 7 0 12.6047261103483
6  49 11 11
6  50 5 7
0

0101000
+52 12 -45 12 *
Wi

0101000
+51 0 -44 0 -43 5 +42 10 *
Fa
0  1e-07 11 0
2  11
0101000
+41 0 *
Ve
1e-07
0 5 0
0 0

0101101
*
Ve
1e-07
0 5 15
0 0

0101101
*
Ed
 1e-07 1 1 0
1  26 0 0 15
2  51 12 0 0 15
2  52 13 0 0 15
6  51 12 0
6  52 13 0
0

0101000
+39 2 -38 2 *
Ed
 1e-07 1 1 0
1  27 0 0 10
2  53 12 6 0 10
2  54 4 7 0 10
6  53 12 6
6  54 4 7
0

0101000
+39 8 -46 8 *
Ed
 1e-07 1 1 0
1  28 0 0 10
2  55 12 11 0 10
2  56 5 7 0 10
6  55 12 11
6  56 5 7
0

0101000
+38 12 -45 12 *
Wi

0101000
+37 0 -44 0 -36 5 +35 10 *
Fa
0  1e-07 12 0
2  12
0101000
+34 0 *
Ve
1e-07
0 0 0
0 0

0101101
*
Ve
1e-07
0 0 15
0 0

0101101
*
Ed
 1e-07 1 1 0
1  29 0 0 15
2  57 13 0 0 15
2  58 14 0 0 15
6  57 13 0
6  58 14 0
0

0101000
+32 2 -31 2 *
Ed
 1e-07 1 1 0
1  30 0 0 5
2  59 13 6 0 5
2  60 4 7 0 5
6  59 13 6
6  60 4 7
0

0101000
+32 8 -39 8 *
Ed
 1e-07 1 1 0
1  31 0 0 5
2  61 13 11 0 5
2  62 5 7 0 5
6  61 13 11
6  62 5 7
0

0101000
+31 12 -38 12 *
Wi

0101000
+30 0 -37 0 -29 5 +28 10 *
Fa
0  1e-07 13 0
2  13
0101000
+27 0 *
Ve
1e-07
-103.366354627319 0 0
0 0

0101101
*
Ve
1e-07
-103.366354627319 0 15
0 0

0101101
*
Ed
 1e-07 1 1 0
1  32 0 0 15
2  63 14 0 0 15
2  64 15 0 0 15
6  63 14 0
6  64 15 0
0

0101000
+25 2 -24 2 *
Ed
 1e-07 1 1 0
1  33 0 0 103.366354627319
2  65 14 6 0 103.366354627319
2  66 4 7 0 103.366354627319
6  65 14 6
6  66 4 7
0

0101000
+32 8 -25 8 *
Ed
 1e-07 1 1 0
1  34 0 0 103.366354627319
2  67 14 11 0 103.366354627319
2  68 5 7 0 103.366354627319
6  67 14 11
6  68 5 7
0

0101000
+31 12 -24 12 *
Wi

0101000
+30 0 -23 0 -22 5 +21 10 *
Fa
0  1e-07 14 0
2  14
0101000
+20 0 *
Ve
1.00000000444089e-07
-103.366354627319 5 0
0 0

0101101
*
Ve
1.00000000444089e-07
-103.366354627319 5 15
0 0

0101101
*
Ed
 1e-07 1 1 0
1  35 0 0 15
2  69 15 0 0 15
2  70 2 0 0 15
4 G1 15 0 2 0
6  69 2 0
6  70 15 0
0

0101000
+18 2 -17 2 *
Ed
 1e-07 1 1 0
1  36 0 0 5
2  71 15 6 0 5
2  72 4 7 0 5
6  71 15 6
6  72 4 7
0

0101000
+25 8 -18 8 *
Ed
 1e-07 1 1 0
1  37 0 0 5
2  73 15 11 0 5
2  74 5 7 0 5
6  73 15 11
6  74 5 7
0

0101000
+24 12 -17 12 *
Wi

0101000
+23 0 -16 0 -15 5 +14 10 *
Fa
0  1e-07 15 0
2  15
0101000
+13 0 *
Ed
 1e-07 1 1 0
1  38 0 1.57079632145199 3.14159265358979
2  75 2 6 1.57079632145199 3.14159265358979
2  76 4 7 1.57079632145199 3.14159265358979
6  75 2 6
6  76 4 7
0

0101000
+98 8 -18 8 *
Ed
 1e-07 1 1 0
1  39 0 1.57079632145199 3.14159265358979
2  77 2 11 1.57079632145199 3.14159265358979
2  78 5 7 1.57079632145199 3.14159265358979
6  77 2 11
6  78 5 7
0

0101000
+97 12 -17 12 *
Wi

0101000
+96 0 -16 0 -11 5 +10 10 *
Fa
0  1e-07 2 0
2  2
0101000
+9 0 *
Wi

0101100
+92 0 +85 0 +78 0 +71 0 +64 0 +57 0 +50 0 +43 0 -36 0 -29 0 
+22 0 +15 0 -11 0 *
Fa
0  1e-07 4 0
2  4
0101000
-7 3 *
Wi

0101100
+91 0 +84 0 +77 0 +70 0 +63 0 +56 0 +49 0 +42 0 -35 0 -28 0 
+21 0 +14 0 -10 0 *
Fa
0  1e-07 5 0
2  5
0101000
-5 3 *
Sh

0101000
-89 0 -82 0 -75 0 -68 0 -61 0 -54 0 -47 0 -40 0 +33 0 +26 0 
-19 0 -12 0 +8 0 +6 13 -4 14 *
So

0100000
-3 0 *
Co

1100000
+2 1 *

+1 0 